<svg id="f8a4837d-5088-4bc9-8968-57c2bcfbf8fe" data-name="Main" xmlns="http://www.w3.org/2000/svg" viewBox="0 0 1200.59 629.99">
  <title>bg_profile</title>
  <g style="opacity: 0.51">
    <path d="M527,136.32c-6.53-12.89-9.85-25-6.3-38.12,1.82-6.71,5.18-12.55,12.67-14.18,7.17-1.57,12.75,1.89,16.61,7.38,4.88,7,8.94,14.49,13.94,22.74l19.55-3c-9.87-21.13-17.5-43-45.5-46.36,11.27-4.71,22.7-3.18,31.85,5.63,5.86,5.64,9.84,13.18,15.07,19.54,1.68,2,4.65,3,7,4.46.34-2.85,2-6.49.79-8.41-5.62-9.13-12-17.79-17.53-25.75,6.77,1.59,13.7,6.65,19,13.71,4.15,5.52,7.19,11.88,11.21,17.53,1.24,1.74,4.08,2.36,6.18,3.49.64-2.34,2.56-5.44,1.7-6.91-5.68-9.72-12-19.08-17.37-27.5.23.11,3.17.73,4.76,2.53,8,9.13,15.64,18.67,23.66,27.84,2,2.3,5,3.76,7.56,5.6.26-3.3,1.93-7.46.53-9.75-5.73-9.38-12.39-18.19-19.89-28.9,6.7,4.81,13.23,8,17.69,13.06C636,77.43,639.89,85.55,645,92.68c1.61,2.22,4.57,3.47,6.91,5.16.49-3,2.39-6.92,1.2-9-5.09-8.9-11.09-17.28-16.51-25.48,7.2,2.39,13.86,7.72,18.94,14.85,4,5.63,6.93,12,10.83,17.76,1.2,1.76,4.05,2.38,6.14,3.53.64-2.35,2.4-5.12,1.71-7-2-5.37-5-10.38-8.12-16.56,15.6,10.23,23.78,24.41,28.53,40.81.31,1-3.13,4.41-5,4.62-4.74.52-9.61,0-14.42-.39-6.28-.44-11,1.8-11.16,8.44s4.78,8.82,10.9,9c7.49.24,15,1.11,22.44,1.11,6.06,0,8.39,3.36,10,8.41,1.48,4.69-.28,6.65-4.8,6.68-5.35,0-10.71-.07-16.06-.17s-9,2.63-9.35,7.85c-.43,5.67,3,9.09,8.69,9.36,8,.38,16.07.73,24.08.43,7.72-.3,9.49,5,10.52,10.58.22,1.2-2.86,4.11-4.7,4.38-4.72.71-9.6.37-14.42.48-6,.13-11,1.92-10.94,8.9s4.94,8.63,11,8.44c7.23-.23,14.46-.36,21.68-.26,5.72.08,11.65,6.44,10.38,11.61-.43,1.75-3.63,3.82-5.71,4-6.3.51-10.75,2.86-10.09,9.64.72,7.35,6.47,8.63,12.55,7.75,7.73-1.11,13.77-.32,15.77,8.87.93,4.29-.3,6-4.43,6.39-5.07.43-10.12,1.12-15.19,1.4-5.92.32-10.08,2.73-9.8,9.09.29,6.91,5.13,8.74,11.24,8.27,6.67-.5,13.32-1.2,20-1.54,6.51-.33,12.2,5.12,11.23,11.25-.27,1.74-3.32,3.85-5.43,4.32-5.2,1.16-10.59,1.43-15.89,2.13-5.7.75-8.89,4-8.12,9.79s5.08,7.82,10.54,7.27c6.65-.67,13.27-1.72,19.93-2.33s13,5.27,11.76,11.62c-.33,1.76-3.39,3.76-5.54,4.29-4.91,1.21-10,1.43-15,2.32-5.66,1-9.72,4-8.66,10.33,1,5.82,5.39,7.55,10.86,6.82,6.1-.81,12.24-1.45,18.26-2.66,6.56-1.3,9.46,1.61,10.55,7.66,5.56,30.62-12.07,63.46-41.69,74.65-32,12.08-65.27,19.23-99.64,18-27.6-1-46.73-16.47-57.9-40.7-10-21.8-18.22-44.5-26.61-67-1.71-4.61-.71-10.23.91-15.72,7.56,19,14.94,38.05,22.76,56.94,4.38,10.58,8.64,21.36,14.45,31.18,8.63,14.58,21.51,24.42,38.49,27.84a19.26,19.26,0,0,0,10.15-.51,12.23,12.23,0,0,0,6.22-6.36c.52-1.3-2-4.49-3.84-6-10.6-8.47-16.95-19.82-22.29-31.91-1.18-2.66-2.28-5.36-3.65-8.6-5.86,2.83-11.22,5.7-16.79,8.06-6.79,2.87-10.29.92-13.79-8.82,7.08,7.1,12.69,4.09,18.78,1.2,20-9.5,38.77-21.93,61.17-25.56,14.51-2.34,29.06-4.46,43.62-6.51,5.32-.75,9.72-2.32,9-8.74-.7-6.17-5.38-9.28-10.79-8.46-29.22,4.43-59.31,5.54-85.91,20.88-3.9,2.25-8,4-12.92,6.48l-5.91-12.89c-9,2.32-17.34,4.85-25.91,6.37-1.43.25-3.63-3.87-5.21-7.17,8.08,6.87,14.38,1.67,21.09-1.59,18-8.74,34.78-20.43,55.06-23.53,15.33-2.35,30.79-3.86,46.21-5.54,5.64-.62,11.12-1.2,11-8.64-.1-5.76-5.41-9.57-12.93-8.81-32.18,3.26-64.77,5-93.13,23.49a33.35,33.35,0,0,1-4.66,2.05l-6.39-14.48c-5.63,2.9-10.71,5.75-16,8.2-7,3.26-10.89,1.3-14.06-7.91,6.88,6.39,12.47,3.42,18.71.43,17.53-8.39,34.84-17.86,53.27-23.58,13.74-4.26,29.09-3.32,43.73-4.71,3.19-.31,6.7,0,9.49-1.22,3.21-1.44,8.51-5.17,8.12-6.41-1.18-3.76-4.48-7-7.36-10-.83-.87-3.06-.62-4.62-.53-33.71,2-67.55,3.41-97,23.22a9.45,9.45,0,0,1-2.41.57l-19.83-49.94C554,232.48,548.17,243,537.88,239c-2.18-.85-3.48-4-4.74-7.07,6.12,4.9,11.31,3.18,17.07-.07,17.65-9.92,34.34-22.66,55.15-24.91,17.24-1.86,34.7-1.7,52.07-2.2,5.32-.15,10.22-1,10.35-7.26.13-5.84-4-10.08-9.53-10-24.52.17-49.43-2.43-73.09,6.49-10.19,3.84-19.85,9.06-30.33,13.92l-6.17-14c-5.54,3.14-10.71,6.41-16.16,9.09-6.68,3.29-11,.81-13.57-8.6,6.23,6.62,11.64,4.78,17.52,1.22,10-6.1,20.21-12.1,30.72-17.34,14.14-7,29.39-9.56,45.17-9,11,.38,21.95,1.06,32.9.71,2.93-.09,8.13-3.49,8.12-5.35,0-3.59-2.84-7.27-4.87-10.68-.49-.83-2.43-1-3.73-1.09-34.46-2.47-68.66-3.38-99.28,16.83a40.64,40.64,0,0,1-4.71,2.24l-5.67-12.72c-8.68,2.9-16.67,6-24.92,7.92-1.49.35-4.08-4-5.79-7.31,7.61,6.16,13.56,2.42,19.83-1.57,16.49-10.48,33-21.59,53-23.44,13-1.19,26.14-.41,39.23-.35,4.54,0,9.08.52,13.62.87,5.42.41,10.21-1,10.42-7.11.2-5.69-3.47-9.69-9.29-10.27C595.14,114.29,559.35,112.9,527,136.32Zm54.85,120.9c3.84-1.64,6-2.71,8.19-3.48,11.26-3.91,22.34-8.7,33.9-11.3,9.24-2.08,19.08-1.54,28.66-2,6.35-.33,11.46-2.33,10.72-9.76-.68-6.83-6-8.08-11.84-7.84-8,.32-16,.51-24,1.19A106.39,106.39,0,0,0,580,239.37c-2.89,1.79-5.35,6.82-5.17,10.2C575,252.29,579.41,254.78,581.8,257.22Zm56.75,106.94c5.24,11.61,9.48,22.21,14.75,32.28,4.06,7.79,10.29,7.62,15.71.42,6.79-9,7.93-29.61,1.75-39-.93-1.42-4.17-2.48-5.88-2C656.48,358.15,648.23,361,638.55,364.16Zm30.32,60.48,1.83,2.16c7-6.31,14.64-12.06,20.84-19.08,8.64-9.76,11.23-21.78,8.28-34.52-.57-2.45-3.69-4.32-5.64-6.46-1.1,2.57-3.36,5.25-3.11,7.68,1.64,15.75-4,28.83-13.82,40.55C674.51,418.24,671.67,421.42,668.87,424.64Zm21.52-3.59c10.75-6,21.75-14.69,26.37-28.64,2.41-7.31,2.27-15.6,2.3-23.45,0-2.09-3.57-4.2-5.51-6.31-1.12,2.36-2.87,4.62-3.23,7.08-.9,6.28.42,13.36-2,18.83C703.08,400.2,696,411,690.39,421.05Zm16.87-4.28,1,1.1c4.18-3.3,8.64-6.3,12.51-9.94,11.68-11,18.69-24.09,16.52-40.62-.32-2.41-3.29-4.47-5-6.7-1.26,2.34-3.62,4.68-3.61,7,0,13.24-2.82,25.5-10.81,36.23C714.52,408.31,710.8,412.47,707.26,416.77Zm19.5-4.39c14.33-7.95,23.47-18.56,27-32.42,1.61-6.25,1.23-13.08,1.16-19.64,0-1.25-2.8-3.49-4.23-3.43s-3.65,2.6-3.63,4C747.3,380.84,740.64,397.94,726.76,412.38ZM702,233.06c0-9.2-6-17-12.24-16.55-6,.44-7.85,5-8,10.1-.27,7.75,6.09,15.35,12.42,15.1S701.79,237,702,233.06ZM745.35,406.2c18.06-10.31,27-26,27.63-46.42.06-2-2.81-4.12-4.33-6.19-1.33,1.94-3.77,3.84-3.84,5.82C764.22,377.54,757.55,393,745.35,406.2ZM539,123.31c-2.41-10.62-4.57-20.15-6.69-29.51-5.63,7.84-5.54,22.18.5,32.6Zm66.56,134.85,46.29-8.42C635.47,247.13,620.06,249.09,605.54,258.16ZM567.11,147.77l46.51-4.67C596,138.81,581.16,140.37,567.11,147.77Zm99,137.72c-15.44-2-30.06-.75-45.26,8.81ZM593,221.23l46.27-7.13C623.68,210.21,605,213.26,593,221.23Zm89.11,99.25c-19.87-1.94-37.42,2.33-45.57,10.09ZM624.43,178.83c-15.54-3.17-30.52-2.58-46.24,6ZM570.34,225.7c1.64,3.94,2.93,7,4.44,10.67l9.34-5.4L579.8,220.4Zm72.54,172c-3.67-9.85-7.22-19.39-10.75-28.92C626.17,372.7,631,385.67,642.88,397.72Zm-77.49-213.6-9.19,5.24c1.5,3.74,2.8,7,4.28,10.65l9-5.29Zm28.62,73-9.4,4.84,4.32,10.56,9.16-4.87Zm-48-93.48,8.62-5.19c-1.67-3.74-3-6.79-4.57-10.22l-8,4.54Zm52.8,134.85c1.63,3.88,2.93,7,4.39,10.41l8.12-4.54c-1.32-3.57-2.52-6.85-3.91-10.61ZM625,341.38l-4.1-10.68-7.74,4.09,4.09,10.09Z" style="fill: #fff;opacity: 0.71"/>
    <path d="M532.83,245.47c13-1.36,18.34,3.66,18.35,16.48q0,128.06,0,256.12c0,23,10.32,31.49,32.85,27.35,27.86-5.13,55.76-10.06,83.66-15,18.56-3.27,28.16-14.24,28.3-33,.14-17.67.27-35.34-.08-53-.13-6.28,1.78-9.65,8.57-9.86.25.51.83,1.14.83,1.78.06,26.49.25,53,0,79.48-.11,11-6,19.4-16.79,21.76-37.56,8.24-75.12,16.63-113,23.16-21.9,3.77-33-7.06-34.46-29.45-.48-7.73-.35-15.51-.35-23.27q0-120.84,0-241.68C540.79,258.43,540.75,250.83,532.83,245.47Z" style="fill: #fff;opacity: 0.71"/>
    <path d="M658.32,451.53c0,13.86.63,26.43-.16,38.91-.93,14.64-11.25,23.34-28.27,24.7.82-4.51,1.77-8.82,2.36-13.18,1.5-11.2-5.91-18.22-16.94-15.53-5.37,1.32-10.37,4.12-15.59,6.1-3,1.11-6.16,2.94-9,2.58a13,13,0,0,1-8.3-4.83c-1.1-1.59,0-5.83,1.45-7.83,5.9-7.92,12.33-14.44,23.2-16.68C623.94,462.3,640.38,456.64,658.32,451.53Z" style="fill: #fff;opacity: 0.71"/>
    <path d="M510.58,74.26l-10.67,7C482.38,92.64,477.56,106,485,126.05c9.09,24.55,18.93,48.82,28.42,73.23,5.12,13.18,10.17,26.38,15.26,39.57l-1.37,2c-2.26-1.41-5.79-2.31-6.58-4.3-14.71-37-29.58-73.95-43.2-111.35-3.1-8.53-1.66-18.72-2.28-27.76-13.61,4.89-30.82,20.09-39.38,35.91,7.7-2,13.35-.2,15.43,7.72,2,7.75-2.17,17.92-8.79,21.7s-11,.25-16-7.13v31.61l24.39-10.92.74,1.2-27.54,17c-1.23-4.55-2.65-7.91-3-11.38-2.85-28.63,5.12-53.85,26.37-73.45,18-16.59,39.72-27.55,62-37.18Z" style="fill: #fff;opacity: 0.71"/>
    <path d="M555.94,529.19V464.73l26.23,4.91c-2.07,3-3.73,5.52-5.55,7.95-4.45,5.94-5.49,12.17-1.25,18.54s10.63,9.12,18,7.61c4.86-1,9.39-3.54,14.09-5.35a72,72,0,0,1,9-3.26c5.66-1.36,7.75,1,7.11,6.85-1.43,13.06-3.47,15.5-16.28,17.84Z" style="fill: #fff;opacity: 0.71"/>
    <path d="M533.76,358.27c0,13.64.08,27.29,0,40.94-.06,7.16-2.42,8.58-8.79,5.26-7.63-4-12.5-9.88-12.48-19q.09-34.12.07-68.25a7.77,7.77,0,0,1,.05-1.6c1.09-5.46-.33-12.73,8-13.52,6.5-.62,13.08,6.82,13.16,14.42C533.86,330.43,533.76,344.35,533.76,358.27Z" style="fill: #fff;opacity: 0.71"/>
    <path d="M533.46,484c-7-3.56-11.92-5.95-16.7-8.68a5.5,5.5,0,0,1-2.61-3.73c-.22-9.44-.12-18.9-.12-28.61,15.72,4,19.43,8.47,19.43,22.26Z" style="fill: #fff;opacity: 0.71"/>
    <path d="M533.61,276.42,512.54,280c1-7.52-3.52-16.26,4.18-22.41,2.36-1.88,8-1.84,10.95-.38C536.29,261.45,533.33,269.71,533.61,276.42Z" style="fill: #fff;opacity: 0.71"/>
    <path d="M487.06,172.93c4.88,7,4.11,10.65-2.9,15-11.33,7-22.78,13.82-34.16,20.75-11.65,7.09-11.64,7.1-12.46,20.26-1.7-3.25-4.2-6.36-4.79-9.8-.32-1.86,2.13-5,4.15-6.33q19.94-12.6,40.27-24.55C483,184.8,487.83,181,487.06,172.93Z" style="fill: #fff;opacity: 0.71"/>
    <path d="M501.4,208.52c5.06,6.37,3,11.06-2.87,14.59-11.68,7-23.45,13.8-35.19,20.69-11.53,6.78-11.53,6.78-10.37,18.66l-1.92,1.13c-1.64-3.24-3.91-6.35-4.64-9.78-.36-1.67,1.69-4.74,3.47-5.83q20.16-12.3,40.7-24C496.77,220.53,501.54,216.52,501.4,208.52Z" style="fill: #fff;opacity: 0.71"/>
    <path d="M514.47,406c7.12,5,12.95,8.56,17.95,13,1.28,1.15.72,5.65-.47,7.79-.64,1.14-5.36,1.61-6.63.51a104.21,104.21,0,0,1-13.1-13.79C511.48,412.67,513.3,409.7,514.47,406Z" style="fill: #fff;opacity: 0.71"/>
    <path d="M631,453.84c-36.34,14.81-68.8,13.25-76.18-.11C581.35,467.31,606.09,457.54,631,453.84Z" style="fill: #fff;opacity: 0.71"/>
    <path d="M464.39,298.55c-1.66-3.68-3.93-7.24-4.66-11.1-.27-1.44,2.75-4.09,4.79-5.28,13.45-7.84,27.05-15.44,40.6-23.11l1.27,1.56c-1.28,1.2-2.38,2.69-3.85,3.55-8.73,5.09-17.52,10.08-26.33,15-11.3,6.35-11.31,6.32-9.26,17.9Z" style="fill: #fff;opacity: 0.71"/>
    <path d="M672.91,489.05l13.45,9.38c-2,1.54-4.73,4.82-6,4.34-4.88-1.94-12.82.76-13.73-7.49C666.51,493.76,670,491.85,672.91,489.05Z" style="fill: #fff;opacity: 0.71"/>
    <path d="M480.34,333.51c-9.26-7.7-9.07-12.91-.38-17.67,8.33-4.56,16.68-9.09,26.16-12.48-.92,1.14-1.62,2.66-2.8,3.35-5.51,3.2-11.06,6.39-16.78,9.16-6,2.91-9.85,6.38-6.08,13.57C480.86,330.2,480.43,331.4,480.34,333.51Z" style="fill: #fff;opacity: 0.71"/>
    <path d="M491.59,368.13c-1.64-3.74-4-7.38-4.57-11.28-.22-1.58,3.3-4.12,5.55-5.51a41.87,41.87,0,0,1,13.56-5.55c-1,1.14-1.71,2.6-2.91,3.37-10.56,6.75-10.59,6.71-9.18,17.63Z" style="fill: #fff;opacity: 0.71"/>
    <path d="M570.21,385.34c7.93,8.88.62,15.93-16.15,20.28C561.26,398.66,573,397.47,570.21,385.34Z" style="fill: #fff;opacity: 0.71"/>
    <path d="M505.66,402.37c-7-10.69-7-11.85,0-15.21Z" style="fill: #fff;opacity: 0.71"/>
    <path d="M581.8,257.22c-2.39-2.44-6.83-4.93-7-7.65-.18-3.38,2.28-8.41,5.17-10.2A106.39,106.39,0,0,1,627.46,224c8-.68,16-.87,24-1.19,5.8-.24,11.16,1,11.84,7.84.74,7.43-4.37,9.43-10.72,9.76-9.58.5-19.42,0-28.66,2-11.56,2.6-22.64,7.39-33.9,11.3C587.76,254.51,585.64,255.58,581.8,257.22Z" style="opacity: 0.71"/>
    <path d="M638.55,364.16c9.68-3.12,17.93-6,26.33-8.31,1.71-.47,5,.59,5.88,2,6.18,9.39,5,30-1.75,39-5.42,7.2-11.65,7.37-15.71-.42C648,386.37,643.79,375.77,638.55,364.16Z" style="opacity: 0.71"/>
    <path d="M668.87,424.64c2.8-3.22,5.64-6.4,8.38-9.67,9.84-11.72,15.46-24.8,13.82-40.55-.25-2.43,2-5.11,3.11-7.68,2,2.14,5.07,4,5.64,6.46,2.95,12.74.36,24.76-8.28,34.52-6.2,7-13.84,12.77-20.84,19.08Z" style="opacity: 0.71"/>
    <path d="M690.39,421.05c5.65-10,12.69-20.85,17.91-32.49,2.44-5.47,1.12-12.55,2-18.83.36-2.46,2.11-4.72,3.23-7.08,1.94,2.11,5.52,4.22,5.51,6.31,0,7.85.11,16.14-2.3,23.45C712.14,406.36,701.14,415.05,690.39,421.05Z" style="opacity: 0.71"/>
    <path d="M707.26,416.77c3.54-4.3,7.26-8.46,10.59-12.92,8-10.73,10.84-23,10.81-36.23,0-2.33,2.35-4.67,3.61-7,1.75,2.23,4.72,4.29,5,6.7,2.17,16.53-4.84,29.65-16.52,40.62-3.87,3.64-8.33,6.64-12.51,9.94Z" style="opacity: 0.71"/>
    <path d="M726.76,412.38c13.88-14.44,20.54-31.54,20.32-51.46,0-1.43,2.31-4,3.63-4s4.22,2.18,4.23,3.43c.07,6.56.45,13.39-1.16,19.64C750.23,393.82,741.09,404.43,726.76,412.38Z" style="opacity: 0.71"/>
    <path d="M702,233.06c-.23,3.92-1.51,8.39-7.86,8.65s-12.69-7.35-12.42-15.1c.19-5.15,2-9.66,8-10.1C696,216.06,702.06,223.86,702,233.06Z" style="opacity: 0.71"/>
    <path d="M745.35,406.2c12.2-13.25,18.87-28.66,19.46-46.79.07-2,2.51-3.88,3.84-5.82,1.52,2.07,4.39,4.17,4.33,6.19C772.37,380.16,763.41,395.89,745.35,406.2Z" style="opacity: 0.71"/>
    <path d="M539,123.31l-6.19,3.09c-6-10.42-6.13-24.76-.5-32.6C534.41,103.16,536.57,112.69,539,123.31Z" style="opacity: 0.71"/>
    <path d="M605.54,258.16c14.52-9.07,29.93-11,46.29-8.42Z" style="opacity: 0.71"/>
    <path d="M567.11,147.77c14-7.4,28.91-9,46.51-4.67Z" style="opacity: 0.71"/>
    <path d="M666.13,285.49l-45.26,8.81C636.07,284.74,650.69,283.45,666.13,285.49Z" style="opacity: 0.71"/>
    <path d="M593,221.23c12-8,30.69-11,46.27-7.13Z" style="opacity: 0.71"/>
    <path d="M682.1,320.48l-45.57,10.09C644.68,322.81,662.23,318.54,682.1,320.48Z" style="opacity: 0.71"/>
    <path d="M624.43,178.83l-46.24,6C593.91,176.25,608.89,175.66,624.43,178.83Z" style="opacity: 0.71"/>
    <path d="M570.34,225.7l9.46-5.3L584.12,231l-9.34,5.4C573.27,232.72,572,229.64,570.34,225.7Z" style="opacity: 0.71"/>
    <path d="M642.88,397.72c-11.89-12.05-16.71-25-10.76-28.93C635.66,378.33,639.21,387.87,642.88,397.72Z" style="opacity: 0.71"/>
    <path d="M565.39,184.12l4.08,10.6-9,5.29c-1.48-3.66-2.78-6.91-4.28-10.65Z" style="opacity: 0.71"/>
    <path d="M594,257.16l4.08,10.53-9.16,4.87L584.61,262Z" style="opacity: 0.71"/>
    <path d="M546.06,163.68l-4-10.87,8-4.54c1.54,3.43,2.9,6.48,4.57,10.22Z" style="opacity: 0.71"/>
    <path d="M598.86,298.53l8.6-4.74c1.39,3.76,2.59,7,3.91,10.61l-8.12,4.54C601.79,305.49,600.49,302.41,598.86,298.53Z" style="opacity: 0.71"/>
    <path d="M625,341.38l-7.75,3.5-4.09-10.09,7.74-4.09Z" style="opacity: 0.71"/>
    <path d="M696.86,135.07c12.68.06,21.25,15.8,11.46,32.31,7.89.68,14.38,4,15.49,12,.89,6.47-.1,13.2-.28,21,5.72-.12,12,3.52,13.15,11.6,1,6.72.2,13.71.2,21.15,13.57,3.33,16.11,10,10.47,32.06,15.7,3.17,18.44,10.12,12.59,32,15.93,4.95,16.89,7.39,13,33,11.36,3.47,13.55,6,14.06,18.7,1.28,32-12.29,55.84-40.53,70.89a303.23,303.23,0,0,1-30,13.45c-5,2-6.82,4.49-6.73,10,.35,22.76.19,45.53.14,68.3,0,18.18-6.81,27.3-24.15,32q-17,4.57-34.31,8.22c-4.18.9-5.74,2.56-5.73,6.9.11,67,0,4.43.21,71.38H598.39c.2-64.27.14,1,.09-63.3a24.61,24.61,0,0,0-.78-3.92c-6.66.89-13.25,1.5-19.75,2.68-25.85,4.69-45.8-6.84-63.62-23.46-7.11-6.63-8.12-16-8.12-25.3,0-33.47.1-67-.18-100.43,0-3.21-2.25-6.48-3.76-9.58-3.63-7.47-10.08-14.23-4.8-23.59,2.11-3.73,1-6.25-3.24-8.11-9.94-4.39-13.93-16-10.31-26.7.66-1.95-.94-6.16-2.73-7.19-10.21-5.87-14.92-16.83-10.7-27.27,1.66-4.1.81-6.22-3.35-8.07-9.78-4.32-14.54-16.67-10.25-26.56,1.86-4.29.61-6.34-3.25-8.17-9.85-4.67-14.7-16.67-10.55-26.45,1.9-4.48.93-6.63-3.59-8.57-9.28-4-14.21-16.89-10.1-26.09,1.94-4.34,1-6.25-3-8.9-3.61-2.35-7.47-6.73-8.18-10.75-6.36-35.66,3.65-66.47,32.42-88.6,41-31.56,87.6-49.25,140.08-47.5C612.79,54.9,635,56.37,656,65.22c23.94,10.12,37.08,29.22,43.61,53.22C700.94,123.4,697.87,129.56,696.86,135.07Zm-170,1.52c32.42-23.43,68.23-22,104.35-18.44,5.82.58,9.49,4.58,9.3,10.27-.22,6.13-5,7.53-10.43,7.12-4.54-.35-9.09-.85-13.63-.87-13.09-.07-26.26-.84-39.25.35-20.08,1.85-36.57,13-53.07,23.45-6.27,4-12.23,7.73-19.84,1.57,1.71,3.35,4.3,7.66,5.8,7.31,8.25-1.94,16.24-5,24.93-7.92l5.67,12.72a39.06,39.06,0,0,0,4.71-2.24c30.64-20.22,64.85-19.3,99.32-16.84,1.3.1,3.25.27,3.74,1.09,2,3.42,4.86,7.1,4.87,10.69,0,1.86-5.19,5.26-8.13,5.35-11,.35-21.94-.33-32.91-.71-15.78-.55-31,2-45.19,9-10.51,5.24-20.68,11.24-30.74,17.34-5.87,3.56-11.29,5.4-17.52-1.22,2.59,9.41,6.9,11.9,13.57,8.61,5.46-2.69,10.63-6,16.17-9.1l6.18,14c10.48-4.86,20.15-10.09,30.34-13.93,23.67-8.92,48.59-6.32,73.13-6.49,5.51,0,9.65,4.2,9.53,10-.14,6.28-5,7.11-10.36,7.27-17.37.5-34.84.34-52.09,2.2-20.82,2.25-37.52,15-55.17,24.92-5.77,3.25-11,5-17.08.07,1.26,3.11,2.55,6.23,4.73,7.07,10.3,4,16.1-6.53,25.39-8.37l19.84,50a10.61,10.61,0,0,0,2.41-.57c29.46-19.83,63.32-21.25,97-23.24,1.56-.09,3.8-.34,4.62.53,2.89,3,6.19,6.26,7.37,10,.39,1.24-4.91,5-8.13,6.41-2.78,1.25-6.3.91-9.49,1.22-14.64,1.39-30,.45-43.75,4.72-18.44,5.71-35.75,15.19-53.29,23.59-6.24,3-11.83,5.95-18.73-.44,3.18,9.21,7.08,11.18,14.08,7.92,5.27-2.45,10.35-5.3,16-8.21,2.2,5,4.21,9.53,6.39,14.49a34,34,0,0,0,4.67-2.06c28.37-18.46,61-20.23,93.16-23.49,7.53-.76,12.85,3.05,12.94,8.81.12,7.45-5.36,8-11,8.64-15.42,1.68-30.89,3.2-46.22,5.54C630.8,317.91,614,329.61,596,338.35c-6.71,3.26-13,8.46-21.1,1.59,1.58,3.3,3.78,7.42,5.21,7.17,8.57-1.52,17-4.05,25.92-6.37L612,353.63c4.87-2.42,9-4.23,12.93-6.48,26.61-15.35,56.71-16.45,86-20.89,5.4-.82,10.09,2.29,10.79,8.46.73,6.43-3.68,8-9,8.75-14.57,2-29.12,4.17-43.64,6.52-22.42,3.62-41.22,16.06-61.2,25.56-6.1,2.9-11.71,5.91-18.78-1.19,3.49,9.74,7,11.69,13.78,8.82,5.58-2.36,10.94-5.23,16.81-8.07,1.37,3.25,2.47,5.95,3.64,8.61,5.35,12.09,11.7,23.45,22.31,31.92,1.84,1.47,4.36,4.66,3.84,6a12.23,12.23,0,0,1-6.23,6.35,19.12,19.12,0,0,1-10.14.52c-17-3.42-29.88-13.27-38.52-27.86-5.81-9.82-10.07-20.6-14.46-31.19-7.81-18.89-15.19-38-22.76-57-1.63,5.49-2.63,11.11-.91,15.72,8.39,22.54,16.56,45.25,26.62,67.06C594.17,419.5,613.3,435,640.91,436c34.39,1.23,67.69-5.92,99.69-18,29.63-11.2,47.27-44,41.71-74.68-1.09-6-4-9-10.56-7.66-6,1.2-12.16,1.85-18.26,2.66-5.48.73-9.89-1-10.87-6.82-1.06-6.31,3-9.32,8.66-10.34,5-.89,10.14-1.11,15.05-2.32,2.15-.53,5.21-2.53,5.54-4.3,1.19-6.35-5-12.25-11.77-11.62s-13.27,1.67-19.93,2.33c-5.47.55-9.77-1.38-10.55-7.27s2.42-9,8.13-9.8c5.3-.69,10.7-1,15.89-2.13,2.11-.47,5.16-2.58,5.44-4.32,1-6.13-4.72-11.58-11.24-11.25-6.68.34-13.34,1-20,1.54-6.11.47-11-1.37-11.25-8.28-.27-6.36,3.89-8.77,9.81-9.09,5.08-.28,10.13-1,15.19-1.4,4.14-.35,5.37-2.1,4.44-6.4-2-9.19-8-10-15.77-8.87-6.09.88-11.84-.4-12.56-7.76-.66-6.77,3.79-9.12,10.09-9.64,2.08-.16,5.28-2.23,5.71-4,1.28-5.17-4.66-11.53-10.37-11.61-7.23-.1-14.47,0-21.69.25-6.1.19-11-1.33-11-8.43s5-8.78,10.94-8.91c4.82-.11,9.7.23,14.43-.48,1.84-.27,4.92-3.18,4.7-4.38-1-5.61-2.8-10.88-10.52-10.59-8,.3-16.07-.05-24.09-.42-5.73-.27-9.13-3.7-8.7-9.37.39-5.23,3.93-8,9.35-7.85s10.71.2,16.07.17c4.53,0,6.28-2,4.8-6.69-1.6-5.05-3.93-8.41-10-8.41-7.48,0-15-.87-22.45-1.11-6.12-.2-11-2.37-10.9-9s4.88-8.88,11.16-8.44c4.81.35,9.69.92,14.42.39,1.93-.21,5.36-3.57,5.06-4.62-4.76-16.41-12.94-30.6-28.54-40.83,3.12,6.18,6.11,11.19,8.12,16.57.69,1.85-1.07,4.62-1.71,7-2.09-1.14-4.95-1.77-6.14-3.53-3.91-5.72-6.83-12.14-10.84-17.77-5.08-7.13-11.75-12.46-19-14.86,5.42,8.21,11.43,16.59,16.52,25.5,1.2,2.09-.72,6-1.2,9-2.34-1.69-5.31-2.94-6.91-5.16-5.15-7.13-9.08-15.26-14.86-21.78-4.47-5-11-8.26-17.7-13.06C620,68.8,626.64,77.61,632.37,87c1.4,2.29-.27,6.46-.53,9.76-2.55-1.84-5.55-3.3-7.57-5.61-8-9.16-15.61-18.71-23.66-27.84-1.6-1.81-4.54-2.43-4.76-2.54,5.4,8.42,11.69,17.8,17.38,27.52.86,1.47-1.07,4.56-1.7,6.91-2.11-1.13-4.95-1.75-6.19-3.5-4-5.64-7.06-12-11.22-17.53-5.31-7.07-12.25-12.13-19-13.72,5.52,8,11.91,16.63,17.54,25.77,1.18,1.91-.46,5.56-.8,8.41-2.38-1.46-5.35-2.42-7-4.46-5.23-6.36-9.22-13.91-15.08-19.55-9.15-8.81-20.59-10.35-31.86-5.63,28,3.34,35.64,25.24,45.52,46.38l-19.56,3c-5-8.25-9.06-15.78-14-22.74-3.85-5.49-9.44-9-16.62-7.39-7.48,1.64-10.85,7.48-12.67,14.19C517,111.58,520.36,123.69,526.89,136.59Zm5.89,109.19c7.92,5.37,8,13,8,20.91q-.16,120.88-.05,241.78c0,7.77-.13,15.55.35,23.29,1.41,22.39,12.56,33.23,34.48,29.45,37.89-6.53,75.47-14.92,113-23.16,10.78-2.37,16.69-10.77,16.79-21.77.25-26.51,0-53,0-79.52,0-.64-.58-1.27-.83-1.78-6.79.21-8.7,3.58-8.58,9.86.36,17.67.22,35.34.09,53-.14,18.79-9.75,29.76-28.32,33-27.91,4.92-55.82,9.86-83.69,15-22.54,4.14-32.87-4.34-32.87-27.36q0-128.11,0-256.24C551.13,249.45,545.78,244.42,532.78,245.78ZM637.68,630c-.95,0-4.12,0-5.25,0,0-49.24-.08-34.82-.08-43.53a59.39,59.39,0,0,0-1.46-14.29c-.51-2-3.4-4.27-5.51-4.62-1.49-.25-4.45,2.21-5,4a38.11,38.11,0,0,0-1.8,11.73q0,23.33,0,46.66c-4.22,0-6.76-.07-11.68-.07q0-29.71,0-59.43c0-3-.72-6-1.1-9l-2.65.2c-.17,3-.47,6-.48,9.05q0,29.63,0,59.25c12,0,23.92-.19,38.88-.19,0-2.5.05-41.33.05-43.83l-2.74-.06C638.47,595.87,637.68,613.68,637.68,630Zm20.65-178c-18,5.11-34.4,10.77-51.29,14.25-10.88,2.24-17.31,8.76-23.21,16.68-1.5,2-2.55,6.25-1.46,7.83a13.07,13.07,0,0,0,8.32,4.84c2.85.36,6-1.47,9-2.59,5.23-2,10.23-4.78,15.6-6.09,11-2.7,18.45,4.32,17,15.53-.59,4.36-1.54,8.67-2.36,13.18,17-1.35,27.35-10.05,28.28-24.7C659,478.38,658.33,465.8,658.33,451.94ZM510.51,74.5l-1.08-1.75c-22.3,9.63-44.05,20.6-62,37.19-21.26,19.62-29.24,44.85-26.38,73.49.35,3.47,1.77,6.83,3,11.38l27.55-17-.74-1.21-24.41,10.93V155.93c4.92,7.38,9.22,11,16,7.13s10.83-14,8.79-21.71c-2.08-7.92-7.74-9.71-15.43-7.73,8.55-15.82,25.78-31,39.39-35.92.62,9-.82,19.24,2.28,27.78,13.63,37.41,28.5,74.38,43.22,111.39.79,2,4.33,2.89,6.58,4.3l1.37-2c-5.09-13.2-10.14-26.41-15.26-39.59-9.49-24.42-19.34-48.71-28.43-73.27-7.42-20-2.59-33.42,14.94-44.85Zm45.38,455.13,51.39-9.37c12.81-2.34,14.86-4.79,16.29-17.85.64-5.83-1.45-8.22-7.12-6.85a72.6,72.6,0,0,0-9,3.26c-4.7,1.81-9.24,4.36-14.1,5.35-7.4,1.51-13.77-1.21-18-7.61S572.13,484,576.58,478c1.82-2.43,3.49-5,5.56-7.95l-26.25-4.91Zm-22.18-171c0-13.92.1-27.84,0-41.76-.08-7.6-6.66-15.05-13.17-14.43-8.31.79-6.9,8.07-8,13.53a8.54,8.54,0,0,0,0,1.6q0,34.14-.06,68.27c0,9.13,4.85,15,12.48,19,6.38,3.32,8.74,1.9,8.8-5.27C533.78,385.94,533.71,372.29,533.71,358.63Zm24.18,174.89c6,9.44,13.42,10.47,21.89,8.94,30-5.43,60-10.74,89.89-16.28,3.33-.62,7.47-1.6,9.36-3.93,2.11-2.58,3.57-7.38,2.64-10.38-1.81-5.83-14.8-9.17-19.58-5.1-9.12,7.77-19.55,11.79-31.15,13.6-1.56.24-2.94,1.69-4.64,2.73l6.12,4.48c-8.62,3.71-16,6.08-26.14,3.38l10.62-6.29-.69-1.66ZM533.4,484.43V465.66c0-13.8-3.7-18.27-19.44-22.26,0,9.71-.1,19.17.12,28.62a5.52,5.52,0,0,0,2.62,3.73C521.48,478.48,526.45,480.87,533.4,484.43Zm.16-207.68c-.28-6.72,2.68-15-5.95-19.22-3-1.47-8.6-1.51-11,.38-7.7,6.14-3.16,14.89-4.18,22.41Zm-.09,250.51c-10.42,5.54-14.86-3-20.77-9.08,1.1,16,8.43,25.74,22.57,30.17C534.67,541.27,534.09,534.47,533.47,527.26ZM487,173.22c.77,8.05-4.06,11.87-9.89,15.32-13.54,8-27,16.16-40.28,24.56-2,1.28-4.48,4.47-4.16,6.34.59,3.44,3.09,6.55,4.79,9.8.83-13.16.82-13.18,12.47-20.27,11.38-6.93,22.84-13.74,34.18-20.76C491.1,183.87,491.86,180.2,487,173.22Zm14.35,35.6c.15,8-4.63,12-10.83,15.51-13.71,7.74-27.27,15.77-40.71,24-1.78,1.09-3.83,4.16-3.47,5.83.73,3.43,3,6.54,4.64,9.78l1.92-1.13c-1.16-11.88-1.16-11.88,10.38-18.66,11.74-6.89,23.51-13.73,35.2-20.71C504.37,219.88,506.39,215.19,501.33,208.82Zm13.08,197.61c-1.17,3.66-3,6.63-2.26,7.54a104.4,104.4,0,0,0,13.11,13.8c1.27,1.09,6,.63,6.63-.51,1.19-2.14,1.76-6.64.47-7.8C527.36,415,521.53,411.45,514.41,406.43Zm116.52,47.82c-24.86,3.7-49.61,13.48-76.21-.11C562.1,467.51,594.59,469.06,630.93,454.25ZM464.31,298.89l2.55-1.45c-2.05-11.57-2-11.55,9.27-17.9,8.81-5,17.61-10,26.34-15.05,1.47-.86,2.58-2.35,3.85-3.55l-1.26-1.56c-13.56,7.68-27.16,15.28-40.62,23.12-2.05,1.19-5.07,3.85-4.8,5.29C460.37,291.64,462.65,295.21,464.31,298.89ZM672.92,489.47c-2.92,2.8-6.4,4.72-6.23,6.24.91,8.25,8.85,5.55,13.73,7.49,1.22.48,3.93-2.8,6-4.35ZM480.26,333.87c.09-2.12.52-3.31.12-4.08-3.77-7.19.08-10.66,6.08-13.57,5.73-2.78,11.28-6,16.79-9.17,1.18-.68,1.88-2.21,2.8-3.35-9.48,3.4-17.83,7.93-26.17,12.49C471.19,320.94,471,326.16,480.26,333.87ZM468.6,126.52l-6.27-7.25c-2.64,2.5-5.94,4.64-7.57,7.68-.68,1.26,2.23,4.45,3.52,6.76Zm22.91,242,2.46-1.35c-1.41-10.92-1.39-10.89,9.18-17.64,1.2-.77,2-2.23,2.91-3.37a41.87,41.87,0,0,0-13.56,5.55c-2.26,1.4-5.77,3.94-5.55,5.52C487.49,361.12,489.87,364.76,491.51,368.51Zm78.66,17.21C572.92,397.85,561.22,399,554,406,570.79,401.65,578.11,394.61,570.17,385.72Zm-64.58,17V387.54C498.59,390.9,498.56,392.06,505.59,402.76Z" style="opacity: 0.71"/>
    <path d="M467.39,126,457,133.15c-1.28-2.31-4.2-5.51-3.53-6.77,1.64-3,4.95-5.19,7.59-7.7Z" style="fill: #fff;opacity: 0.71"/>
    <path d="M532.4,527.51c.61,7.23,1.19,14,1.8,21.14-14.18-4.44-21.52-14.2-22.62-30.23C517.5,524.56,522,533.08,532.4,527.51Z" style="fill: #fff;opacity: 0.71"/>
  </g>
  <g style="opacity: 0.7200000286102295">
    <polygon points="1200.6 324.2 1200.6 263.8 1186.6 324.2 1200.6 324.2" style="fill: #cc719d"/>
    <polygon points="1200.6 403.2 1200.6 324.2 1186.6 324.2 1200.6 403.2" style="fill: #cc659a"/>
    <polygon points="1200.6 630 1200.6 517 1183.8 630 1200.6 630" style="fill: #cb4892"/>
    <polygon points="1122.6 630 1183.8 630 1200.6 517 1200.6 461.7 1046.1 572.3 1122.6 630" style="fill: #d64b94"/>
    <polygon points="1153.1 0 1051 0 1093.4 24.9 1153.1 0" style="fill: #e390b8"/>
    <polygon points="1200.6 126 1200.6 0 1153.1 0 1093.4 24.9 1200.6 126" style="fill: #d784ae"/>
    <polygon points="1186.6 324.2 1200.6 263.8 1200.6 145.5 1050.2 114.9 1186.6 324.2" style="fill: #da7ba4"/>
    <polygon points="1050.2 114.9 1200.6 145.5 1200.6 126 1093.4 24.9 1050.2 114.9" style="fill: #de84ad"/>
    <polygon points="1186.6 324.2 1050.2 114.9 1013.2 334.9 1186.6 324.2" style="fill: #e07aa4"/>
    <polygon points="1013.2 334.9 1200.6 449.4 1200.6 403.2 1186.6 324.2 1013.2 334.9" style="fill: #d96a9d"/>
    <polygon points="1046.1 572.3 1200.6 461.7 1200.6 449.4 1013.2 334.9 1046.1 572.3" style="fill: #dd629c"/>
    <polygon points="1060 630 1122.6 630 1046.1 572.3 1060 630" style="fill: #d63e92"/>
    <polygon points="1046.1 572.3 1013.2 334.9 897.3 477.3 1046.1 572.3" style="fill: #e768a2"/>
    <polygon points="1050.2 114.9 909.7 151.6 1013.2 334.9 1050.2 114.9" style="fill: #ea85ad"/>
    <polygon points="977.9 630 1060 630 1046.1 572.3 977.9 630" style="fill: #de4496"/>
    <polygon points="1093.4 24.9 1051 0 968.4 0 1050.2 114.9 1093.4 24.9" style="fill: #ea91b8"/>
    <polygon points="1050.2 114.9 968.4 0 908.9 0 909.7 151.6 1050.2 114.9" style="fill: #ef93b9"/>
    <polygon points="897.3 477.3 918.5 630 977.9 630 1046.1 572.3 897.3 477.3" style="fill: #e8559d"/>
    <polygon points="1013.2 334.9 909.7 151.6 827.5 361.5 1013.2 334.9" style="fill: #f083ab"/>
    <polygon points="897.3 477.3 1013.2 334.9 827.5 361.5 897.3 477.3" style="fill: #ee76a8"/>
    <polygon points="825.8 0 666 0 706.2 122.1 825.8 0" style="fill: #fca8c2"/>
    <polygon points="909.7 151.6 908.9 0 825.8 0 706.2 122.1 909.7 151.6" style="fill: #f69bbc"/>
    <polygon points="909.7 151.6 706.2 122.1 827.5 361.5 909.7 151.6" style="fill: #f592b1"/>
    <polygon points="680.2 557.2 831.3 630 918.5 630 897.3 477.3 680.2 557.2" style="fill: #f062a1"/>
    <polygon points="686.5 630 831.3 630 680.2 557.2 686.5 630" style="fill: #ef5a9e"/>
    <polygon points="680.2 557.2 897.3 477.3 827.5 361.5 680.2 557.2" style="fill: #f476a7"/>
    <polygon points="827.5 361.5 706.2 122.1 636.3 372.3 827.5 361.5" style="fill: #f993af"/>
    <polygon points="636.3 372.3 680.2 557.2 827.5 361.5 636.3 372.3" style="fill: #f883aa"/>
    <polygon points="636.3 372.3 497.9 103.3 482.2 354.3 636.3 372.3" style="fill: #fba7b6"/>
    <polygon points="471.1 576.6 474.3 630 595.32 630 600.65 630 604.2 630 610 630 680.2 557.2 471.1 576.6" style="fill: #f779a7"/>
    <polygon points="610 630 686.5 630 680.2 557.2 610 630" style="fill: #f267a2"/>
    <polygon points="706.2 122.1 497.9 103.3 636.3 372.3 706.2 122.1" style="fill: #fca6b8"/>
    <polygon points="666 0 570.4 0 706.2 122.1 666 0" style="fill: #feb1c5"/>
    <polygon points="706.2 122.1 570.4 0 535.1 0 497.9 103.3 706.2 122.1" style="fill: #fdb4c4"/>
    <polygon points="471.1 576.6 680.2 557.2 636.3 372.3 471.1 576.6" style="fill: #f986ab"/>
    <polygon points="482.2 354.3 471.1 576.6 636.3 372.3 482.2 354.3" style="fill: #fa97b2"/>
    <polygon points="402.6 566.5 471.1 576.6 482.2 354.3 402.6 566.5" style="fill: #fa97b1"/>
    <polygon points="497.9 103.3 398.5 135.7 482.2 354.3 497.9 103.3" style="fill: #fcb6bf"/>
    <polygon points="535.1 0 428.6 0 497.9 103.3 535.1 0" style="fill: #fec2cb"/>
    <polygon points="482.2 354.3 398.5 135.7 323.1 299.8 482.2 354.3" style="fill: #fcb6bc"/>
    <polygon points="402.6 566.5 428.4 630 474.3 630 471.1 576.6 402.6 566.5" style="fill: #f883aa"/>
    <polygon points="371.7 630 428.4 630 402.6 566.5 371.7 630" style="fill: #f481aa"/>
    <polygon points="323.1 299.8 402.6 566.5 482.2 354.3 323.1 299.8" style="fill: #fba7b8"/>
    <polygon points="497.9 103.3 428.6 0 400.1 0 398.5 135.7 497.9 103.3" style="fill: #fdc3ca"/>
    <polygon points="398.5 135.7 179.3 169.6 323.1 299.8 398.5 135.7" style="fill: #fdc3c2"/>
    <polygon points="398.5 135.7 259.7 0 193.4 0 179.3 169.6 398.5 135.7" style="fill: #fdd0cc"/>
    <polygon points="400.1 0 259.7 0 398.5 135.7 400.1 0" style="fill: #fdcecf"/>
    <polygon points="313.5 630 371.7 630 402.6 566.5 313.5 630" style="fill: #f68bad"/>
    <polygon points="136.8 485.2 402.6 566.5 323.1 299.8 136.8 485.2" style="fill: #fbabb8"/>
    <polygon points="136.8 485.2 184.3 630 313.5 630 402.6 566.5 136.8 485.2" style="fill: #fb9bb1"/>
    <polygon points="126.5 297.5 136.8 485.2 323.1 299.8 126.5 297.5" style="fill: #fcbcbe"/>
    <polygon points="323.1 299.8 179.3 169.6 126.5 297.5 323.1 299.8" style="fill: #fcc6c1"/>
    <polygon points="126.5 297.5 72.3 382.4 136.8 485.2 126.5 297.5" style="fill: #fcbdc3"/>
    <polygon points="102.1 0 0 0 0 2.9 60.7 25.7 102.1 0" style="fill: #fee2df"/>
    <polygon points="179.3 169.6 193.4 0 102.1 0 60.7 25.7 179.3 169.6" style="fill: #fdd9d5"/>
    <polygon points="70.3 529.8 149.6 630 184.3 630 136.8 485.2 70.3 529.8" style="fill: #fca4b8"/>
    <polygon points="22.4 630 149.6 630 70.3 529.8 22.4 630" style="fill: #fa9db8"/>
    <polygon points="179.3 169.6 7.2 227.1 126.5 297.5 179.3 169.6" style="fill: #fdcec9"/>
    <polygon points="60.7 25.7 7.2 227.1 179.3 169.6 60.7 25.7" style="fill: #fdd6d2"/>
    <polygon points="136.8 485.2 72.3 382.4 70.3 529.8 136.8 485.2" style="fill: #fcb5c0"/>
    <polygon points="7.2 227.1 72.3 382.4 126.5 297.5 7.2 227.1" style="fill: #fdc9c8"/>
    <polygon points="0 209.2 0 225.5 7.2 227.1 0 209.2" style="fill: #fedfdc"/>
    <polygon points="60.7 25.7 0 2.9 0 209.2 7.2 227.1 60.7 25.7" style="fill: #fde0dd"/>
    <polygon points="0 522.1 0 630 22.4 630 70.3 529.8 0 522.1" style="fill: #feaec2"/>
    <polygon points="72.3 382.4 7.2 227.1 0 230.6 0 371.7 72.3 382.4" style="fill: #fdcece"/>
    <polygon points="72.3 382.4 0 411.3 0 522.1 70.3 529.8 72.3 382.4" style="fill: #fdbcc7"/>
    <polygon points="0 371.7 0 411.3 72.3 382.4 0 371.7" style="fill: #fdc8cf"/>
    <polygon points="0 225.5 0 230.6 7.2 227.1 0 225.5" style="fill: #fed8d4"/>
  </g>
</svg>
