<?xml version="1.0" encoding="utf-8"?>
<!-- Generator: Adobe Illustrator 23.0.3, SVG Export Plug-In . SVG Version: 6.00 Build 0)  -->
<svg version="1.1" id="b6766f63-62de-4e7c-b8ed-329c3e5dc8cf"
	 xmlns="http://www.w3.org/2000/svg" xmlns:xlink="http://www.w3.org/1999/xlink" x="0px" y="0px" viewBox="0 0 896.9 541.9"
	 style="enable-background:new 0 0 896.9 541.9;" xml:space="preserve">
<path d="M780.6,231.4H390.1c-64,0-116.3,52.3-116.3,116.3l0,0c0,64,52.3,116.3,116.3,116.3h325.7l64.2,78l0.6-78
	c63.9,0,116.3-52.3,116.3-116.3l0,0C896.9,283.7,844.6,231.4,780.6,231.4z M615.9,405.5H395.4c-10.4,0-18.9-8.4-18.9-18.9
	c0-10.4,8.4-18.8,18.9-18.8h220.5c10.4,0,18.9,8.4,18.9,18.8C634.7,397.1,626.3,405.5,615.9,405.5L615.9,405.5z M800.3,307.5
	c0,10.4-8.5,18.8-18.8,18.8H396c-10.4,0-18.8-8.5-18.8-18.9l0,0c0-10.4,8.5-18.8,18.8-18.9h385.4
	C791.8,288.7,800.2,297.1,800.3,307.5L800.3,307.5z"/>
<ellipse cx="418" cy="131.5" rx="18.4" ry="17.9"/>
<ellipse cx="256.7" cy="131.5" rx="18.4" ry="17.9"/>
<ellipse cx="341.6" cy="131.5" rx="18.4" ry="17.9"/>
<path d="M518.5,0H127.9C57.3,0,0,57.2,0,127.8C0,194,50.5,249.2,116.4,255.1l0.8,98.9l81-98.4l219.5,0.1
	c5.3,3.5,149.5-8.7,155.9-8.7c23.2,0,72.7-45.5,72.6-119.3C646.2,57.3,588.9,0,518.5,0z M544.6,229.6c-6,0.1-126-0.9-132.1-0.9
	H190.8l-46.3,54.8l-0.4-54.8h-11.2c-56.3,0-102-44.5-102-99.5s45.7-99.5,102-99.5h380.6c56.2,0,103.3,44.6,102,99.5
	C614,197.9,568,229,544.6,229.6z"/>
</svg>
