<svg id="ba01f428-de58-44af-b16d-300938eb1a3e" data-name="efe91065-8567-4b4a-98bb-cbfef7f36809" xmlns="http://www.w3.org/2000/svg" viewBox="0 0 728.7 792.98">
  <path d="M131.31,592.48c-5.07-3.29-10.93-14.13-9.13-17.29,3.18-5.58,12-11,18.45-11,29.37.13,58.69,3.34,88,3.34,101.76-.08,158.11-35.11,181.59-124.16,15.68-59.46,16.26-120.46,16.07-181.46,0-13.3-5.87-17.55-18.46-17.3-24.83.49-49.9,1.89-74.44-.93-9.91-1.14-22.54-10.5-26.78-19.5-3.64-7.7-.62-23.68,5.57-30.06q90.09-92.29,182-182.64c16.36-16.09,29-14.9,45.28,1.32q88.23,88.4,176.64,176.65c10.3,10.25,16.31,21.65,10,36-6.06,13.79-17.49,19.48-32.42,19.32-22.16-.23-44.38.95-66.47-.33C611,243.5,606.76,249.25,607,265c.83,58.63,2,117.32-8.17,175.54-10.21,58.43-28.07,113.74-69,158.15-49.35,53.55-113.33,71.08-179.21,69.55C264.33,671.17,196.67,634.82,131.31,592.48Z"/>
  <path d="M.48,251C1,190.51,54.71,129.57,115.27,125.08c47.45-3.49,95.33-1.35,143-.74,15.67.2,20,11.41,10.8,24.75-3.79,5.52-9.4,10.14-11.85,16.14-6.4,15.63-17.49,19.67-33.54,18.92-25.46-1.21-51-.37-76.55-.37-57.9.09-87.33,29.79-87.49,88.47-.11,45-.23,293.51.12,372.76.2,47.47,29.33,83.84,68.84,84q205.5.9,411-.1c36.8-.18,66.45-35.89,65.31-72.61-.63-20.48-.67-41.92,4.51-61.48,5.74-21.69,17.06-42.08,27.42-62.29a13.86,13.86,0,0,1,1.37-2.14c7.52-9.71,23-7.73,28,3.48a9.21,9.21,0,0,1,.89,3.58q1.71,66.51.14,133c-.22,11-3.7,22.63-8.22,32.84-26.07,59-73.22,88.11-136.31,88.9-108,1.36-216.15.65-324.15.19-28.63-.12-57.55-.36-85.82-4.29C50.59,779.45,1,722.31.34,660-.33,592.2-.08,319.5.48,251Z"/>
</svg>
