<svg id="a04e6750-9201-4a20-9f6b-fed85bbf7dee" data-name="Layer 1" xmlns="http://www.w3.org/2000/svg" viewBox="0 0 386.03 386.03">
  <title>logo-wrs</title>
  <path d="M14.27,353.77V190.17a12.08,12.08,0,0,1,12.1-12.1h333.8a12.08,12.08,0,0,1,12.1,12.1v163.6a12.08,12.08,0,0,1-12.1,12.1H26.27A12.06,12.06,0,0,1,14.27,353.77Z" style="fill: none;stroke: #a2027d;stroke-linecap: round;stroke-linejoin: round;stroke-width: 16.52790069580078px"/>
  <circle cx="193.47" cy="178.77" r="36.4" style="fill: #a2027d"/>
  <path d="M270.87,134a89.36,89.36,0,0,0-154.8,0" style="fill: none;stroke: #a2027d;stroke-linecap: round;stroke-miterlimit: 10;stroke-width: 24px"/>
  <path d="M326.17,102.07a153.24,153.24,0,0,0-265.4,0" style="fill: none;stroke: #a2027d;stroke-linecap: round;stroke-miterlimit: 10;stroke-width: 24px"/>
  <g style="isolation: isolate">
    <path d="M104.87,327.77q-.45-13-.6-26.1c-.1-8.7-.2-17.4-.2-26.1-4.2,8.7-8.4,17.4-12.7,26.2s-8.7,17.4-13.1,26.1H51.37c-1.6-28.2-2.6-57-2.8-86.5H76c-.7,10.2-1.4,20.5-2,30.9s-1.1,20.5-1.4,30.5c4.7-9.7,9.3-19.3,13.8-29s8.8-19.2,13.1-28.7H124c-.3,9.2-.5,18.4-.6,27.7s-.2,18.5-.2,27.6c4.2-9.6,8.4-19.3,12.5-29.2s8.1-19.8,12.1-29.7h27.8c-6.8,14.1-13.8,28.39-21.1,42.7s-14.8,29-22.7,43.8h-26.9v-.2Z" style="fill: #a2027d"/>
    <path d="M201.67,298.47l-6.9,29.29h-25.1l20.5-86.5h32.4a60,60,0,0,1,19.8,2.9,27.25,27.25,0,0,1,12.5,8.3,20.25,20.25,0,0,1,4.3,13.1,29,29,0,0,1-5.6,17.7,34.33,34.33,0,0,1-15.7,11.4q3.6,8.1,6.9,16.2c2.2,5.41,4.3,11,6.5,16.8h-26.6c-1.6-5-3.3-9.9-4.9-14.8s-3.5-9.7-5.4-14.5h-12.7v.11Zm9.4-39.5-5.2,21.7h9.2c5.7,0,10.1-1.1,13.2-3.4a11.38,11.38,0,0,0,4.7-9.7,7.06,7.06,0,0,0-3.4-6.3c-2.3-1.5-5.4-2.3-9.4-2.3Z" style="fill: #a2027d"/>
    <path d="M303.07,265.77a5.18,5.18,0,0,0,1,3.3,10.6,10.6,0,0,0,3.7,2.79,62.49,62.49,0,0,0,7.7,3,73.31,73.31,0,0,1,15.1,6.61,22.66,22.66,0,0,1,8.1,7.89,22,22,0,0,1,2.4,10.5,25.42,25.42,0,0,1-3,12.3,27.46,27.46,0,0,1-8.6,9.4,41.19,41.19,0,0,1-13.6,5.9,74.29,74.29,0,0,1-17.8,2.1c-12.7,0-23.6-2.7-32.5-8.2l4.5-19.1a46,46,0,0,0,12.9,6.5,49.18,49.18,0,0,0,14.4,2.1c5.6,0,9.8-.7,12.7-2.2s4.3-3.5,4.3-6a5.68,5.68,0,0,0-1-3.4,9.53,9.53,0,0,0-3.5-2.8,41.93,41.93,0,0,0-6.9-2.8,87.49,87.49,0,0,1-12.5-5,33.46,33.46,0,0,1-8.1-5.4,17.46,17.46,0,0,1-4.4-6.5,23.49,23.49,0,0,1-1.4-8.2,24.29,24.29,0,0,1,3-12,27.19,27.19,0,0,1,8.5-9.1,45.07,45.07,0,0,1,13.3-5.9,66.92,66.92,0,0,1,17.4-2.1c11.2,0,21.1,2.5,29.8,7.6l-4.5,18.9a41.86,41.86,0,0,0-12-5.9,45.42,45.42,0,0,0-13.5-1.9c-5.1,0-9.1.7-11.8,2C304.37,261.47,303.07,263.36,303.07,265.77Z" style="fill: #a2027d"/>
  </g>
  <path d="M43.47,225.07v-8.71h-4.8l2.4-2.39h10.4L49,216.36H46v8Zm-3.7-9.3H44v8.5l1.5-.4v-8.1h3.2l1.5-1.4h-9Z" style="fill: #5fc553;opacity: 0.019999999552965164;isolation: isolate"/>
  <path d="M56.07,224.47h-2.2a4,4,0,0,1-2.4-.71,2.09,2.09,0,0,1-1-1.7V214h2.4v7.6q0,.15.3.3c.1.1.4.1.8.1h2.3a2.35,2.35,0,0,0,.8-.2c.2-.1.2-.2.2-.3v-7.6h2.4v8.2a2,2,0,0,1-1,1.6A4.34,4.34,0,0,1,56.07,224.47Zm-5.1-10v7.6a1.67,1.67,0,0,0,.8,1.29,3.48,3.48,0,0,0,2.1.61h2.2a3.7,3.7,0,0,0,2.1-.61,1.67,1.67,0,0,0,.8-1.29v-7.71h-1.4v7.11a.65.65,0,0,1-.5.7,3,3,0,0,1-1,.2h-2.3a1.33,1.33,0,0,1-1-.3c-.4-.3-.5-.5-.5-.7v-7.1l-1.3.2Z" style="fill: #5fc553;opacity: 0.019999999552965164;isolation: isolate"/>
  <path d="M69.17,224.47h-9.9l6.4-8.11h-3.5a6.83,6.83,0,0,0-1.2.11l-1.4.2,2.6-2.7h8.5l-6.4,8.1H69c.3,0,.7-.1,1.3-.1l1.6-.3Zm-8.9-.5H69l1.5-1.61h-.2a7.44,7.44,0,0,1-1.4.11h-5.7l6.4-8.11h-7.3l-1.5,1.5a5.74,5.74,0,0,1,1.2-.1h4.5Z" style="fill: #5fc553;opacity: 0.019999999552965164;isolation: isolate"/>
  <path d="M77.47,224.47h-1.8a4.43,4.43,0,0,1-3.5-1.61,5.12,5.12,0,0,1-1.5-3.7,5.37,5.37,0,0,1,1.5-3.8,4.79,4.79,0,0,1,3.5-1.6h1.8a4.45,4.45,0,0,1,3.5,1.6,5.2,5.2,0,0,1,1.5,3.8,5.14,5.14,0,0,1-1.5,3.7A4.57,4.57,0,0,1,77.47,224.47Zm-1.7-10a3.78,3.78,0,0,0-3.1,1.39,5.35,5.35,0,0,0-1.3,3.4,4.84,4.84,0,0,0,1.3,3.4,4.26,4.26,0,0,0,3.1,1.4h1.8a4.1,4.1,0,0,0,3.1-1.4,4.94,4.94,0,0,0,1.3-3.4,4.52,4.52,0,0,0-1.3-3.4,4.29,4.29,0,0,0-3.1-1.39Zm1.7,8.1h-1.8a2.61,2.61,0,0,1-2-1,3.8,3.8,0,0,1-.8-2.3,5.85,5.85,0,0,1,.2-1.3,10.91,10.91,0,0,1,.6-1.1,2.46,2.46,0,0,1,2-1h1.8a2.33,2.33,0,0,1,2,1,3.65,3.65,0,0,1,.8,2.4,3.58,3.58,0,0,1-.9,2.4A2.32,2.32,0,0,1,77.47,222.57Zm-1.8-6.3a2.09,2.09,0,0,0-1.6.8,3.84,3.84,0,0,0-.5.9,4.18,4.18,0,0,0-.2,1.1,2.9,2.9,0,0,0,.7,2,2.24,2.24,0,0,0,1.6.79h1.8a2.08,2.08,0,0,0,1.6-.79,3.23,3.23,0,0,0,.8-2.1,3.18,3.18,0,0,0-.7-2.11,1.92,1.92,0,0,0-1.6-.79l-1.9.2Z" style="fill: #5fc553;opacity: 0.019999999552965164;isolation: isolate"/>
  <path d="M82.17,225v-11.4h1a4.33,4.33,0,0,0,.5.1,6.89,6.89,0,0,1,1,.4c.4.29.9.6,1.5,1.1a15.38,15.38,0,0,1,1.3,1.2,5.3,5.3,0,0,1,1,1.2c.1.1.2.3.3.4v-4.2h2.6v10.6l-2.6.5v-2l-1.5-2.5a15.54,15.54,0,0,0-1.4-1.9,5,5,0,0,0-.8-.7l-.5-.3v6.8Zm.4-10.9v10.29l1.4-.29v-7.4l1.2.9c.3.29.6.5.8.7a9.38,9.38,0,0,1,1.5,1.9l1.6,2.6v1.5l1.6-.3v-9.6h-1.6v5.5l-.5-.8a4.44,4.44,0,0,0-.8-1.1,5.24,5.24,0,0,0-1-1.1,12.67,12.67,0,0,0-1.3-1.1,9.38,9.38,0,0,0-1.4-1,3.55,3.55,0,0,0-.9-.4c-.2,0-.3-.1-.5-.1h-.1C82.77,214.07,82.67,214.07,82.57,214.07Z" style="fill: #5fc553;opacity: 0.019999999552965164;isolation: isolate"/>
  <path d="M102.17,224.57h-5.5a4.4,4.4,0,0,1-3.4-1.6,5.05,5.05,0,0,1-1.4-3.71,5.49,5.49,0,0,1,1.4-3.7,4.42,4.42,0,0,1,3.4-1.6h5.8l.4-.4v.9h-.2l-2,1.9-4.1.1a1.9,1.9,0,0,0-1.5.8,4.05,4.05,0,0,0-.5.9,5.16,5.16,0,0,0-.2,1.1,3.19,3.19,0,0,0,.3,1.4l2.8-2.9h4.8l-.1,6.81Zm-5.6-10.1a3.59,3.59,0,0,0-3,1.39,5.1,5.1,0,0,0,0,6.8,4.22,4.22,0,0,0,3,1.4h5v-5.9h-4l-1.5,1.6a7.17,7.17,0,0,1,1.3-.1h2.8v2.9h-3.6a2.17,2.17,0,0,1-1.9-1c-.1-.2-.3-.4-.4-.6h0a3.42,3.42,0,0,1-.4-1.8,3.18,3.18,0,0,1,.2-1.3,4.17,4.17,0,0,1,.6-1.1,2.17,2.17,0,0,1,1.9-1l3.9-.1,1.4-1.3-5.3.11Zm-1.8,6.3c.1.2.2.3.3.5a1.66,1.66,0,0,0,1.5.8h3.1v-1.9h-2.3c-.3,0-.8.1-1.5.1h-.1a.31.31,0,0,0-.2.1Z" style="fill: #5fc553;opacity: 0.019999999552965164;isolation: isolate"/>
  <path d="M109.07,224.47h-1.8a4.43,4.43,0,0,1-3.5-1.61,5.12,5.12,0,0,1-1.5-3.7,5.37,5.37,0,0,1,1.5-3.8,4.79,4.79,0,0,1,3.5-1.6h1.8a4.45,4.45,0,0,1,3.5,1.6,5.2,5.2,0,0,1,1.5,3.8,5.14,5.14,0,0,1-1.5,3.7A4.57,4.57,0,0,1,109.07,224.47Zm-1.8-10a3.78,3.78,0,0,0-3.1,1.39,5.35,5.35,0,0,0-1.3,3.4,4.84,4.84,0,0,0,1.3,3.4,4.26,4.26,0,0,0,3.1,1.4h1.8a4.1,4.1,0,0,0,3.1-1.4,4.94,4.94,0,0,0,1.3-3.4,4.52,4.52,0,0,0-1.3-3.4,4.29,4.29,0,0,0-3.1-1.39Zm1.7,8.1h-1.8a2.61,2.61,0,0,1-2-1,3.8,3.8,0,0,1-.8-2.3,5.85,5.85,0,0,1,.2-1.3,10.91,10.91,0,0,1,.6-1.1,2.46,2.46,0,0,1,2-1H109a2.33,2.33,0,0,1,2,1,3.65,3.65,0,0,1,.8,2.4,3.58,3.58,0,0,1-.9,2.4A2.2,2.2,0,0,1,109,222.57Zm-1.7-6.3a2.09,2.09,0,0,0-1.6.8,3.84,3.84,0,0,0-.5.9,4.18,4.18,0,0,0-.2,1.1,2.9,2.9,0,0,0,.7,2,2.24,2.24,0,0,0,1.6.79h1.8a2.08,2.08,0,0,0,1.6-.79,3.23,3.23,0,0,0,.8-2.1,3.18,3.18,0,0,0-.7-2.11,1.92,1.92,0,0,0-1.6-.79l-1.9.2Z" style="fill: #5fc553;opacity: 0.019999999552965164;isolation: isolate"/>
  <path d="M61.37,205.27l.2-36.8H41.07l10-10.3h42.7v1.5l-9.1,8.8H72l-.2,33.9Zm-15.3-39h17.6l-.2,36.2,6.2-1.7.1-34.4h14l6.4-6.1H52Z" style="fill: #5fc553;opacity: 0.019999999552965164;isolation: isolate"/>
  <path d="M104.07,204.07h-28l17.4-22.3h-9a27.4,27.4,0,0,0-3.1.3l-4.9.7,8.1-8.3h24l-17.5,22.3h12.1a28.32,28.32,0,0,0,3.4-.4l5.5-1Zm-23.8-2h23l3.4-3.71a17.65,17.65,0,0,1-3.4.4H87l17.5-22.29h-19l-3.4,3.39c1.1-.1,1.9-.2,2.5-.2h13.1Z" style="fill: #5fc553;opacity: 0.019999999552965164;isolation: isolate"/>
</svg>
