<svg id="Layer_1" data-name="Layer 1" xmlns="http://www.w3.org/2000/svg" viewBox="0 0 176.45 177.09"><defs><style>.cls-1{fill:var(--(text-color);}</style></defs><title>signup</title><path class="cls-1" d="M21.37,130.61a19.68,19.68,0,1,1,19.68-19.68A19.7,19.7,0,0,1,21.37,130.61Zm0-33.94a14.27,14.27,0,1,0,14.26,14.26A14.28,14.28,0,0,0,21.37,96.67Z"/><path class="cls-1" d="M41.05,176.8H35.63V155.1a14.27,14.27,0,0,0-28.53,0v21.7H1.69V155.1a19.68,19.68,0,1,1,39.36,0Z"/><path class="cls-1" d="M66,39.61A19.68,19.68,0,1,1,85.7,19.93,19.7,19.7,0,0,1,66,39.61ZM66,5.67A14.27,14.27,0,1,0,80.28,19.93,14.28,14.28,0,0,0,66,5.67Z"/><path class="cls-1" d="M85.7,85.8H80.28V64.1a14.27,14.27,0,0,0-28.53,0V85.8H46.34V64.1a19.68,19.68,0,0,1,39.36,0Z"/><path class="cls-1" d="M110.67,130.61a19.68,19.68,0,1,1,19.68-19.68A19.7,19.7,0,0,1,110.67,130.61Zm0-33.94a14.27,14.27,0,1,0,14.26,14.26A14.28,14.28,0,0,0,110.67,96.67Z"/><path class="cls-1" d="M130.35,176.8h-5.42V155.1a14.27,14.27,0,0,0-28.53,0v21.7H91V155.1a19.68,19.68,0,1,1,39.36,0Z"/><path class="cls-1" d="M155.32,130.4A19.68,19.68,0,1,1,175,110.72,19.7,19.7,0,0,1,155.32,130.4Zm0-33.94a14.27,14.27,0,1,0,14.26,14.26A14.28,14.28,0,0,0,155.32,96.46Z"/><path class="cls-1" d="M175,176.59h-5.42v-21.7a14.27,14.27,0,1,0-28.53,0v21.7h-5.41v-21.7a19.68,19.68,0,0,1,39.36,0Z"/><path class="cls-1" d="M50.69,114.86,54.52,111l15.34,15.34L66,130.2,50.69,114.86"/><path class="cls-1" d="M77.52,111l3.83,3.83L66,130.2l-3.83-3.83L77.52,111"/><path class="cls-1" d="M68.73,126.56H63.31V94.86h5.42Z"/></svg>