<svg id="Layer_1" data-name="Layer 1" xmlns="http://www.w3.org/2000/svg" viewBox="0 0 3319.63 1194.49"><defs><style>.cls-1{fill:#edeffc;}.cls-2{fill:#daddfc;}.cls-100,.cls-101,.cls-102,.cls-103,.cls-104,.cls-105,.cls-108,.cls-109,.cls-110,.cls-111,.cls-112,.cls-113,.cls-115,.cls-116,.cls-117,.cls-118,.cls-119,.cls-120,.cls-121,.cls-122,.cls-123,.cls-125,.cls-2,.cls-97,.cls-98{fill-rule:evenodd;}.cls-3{fill:none;}.cls-4{fill:#9d1782;}.cls-5{fill:#830077;}.cls-6{fill:#730074;}.cls-7{fill:#710074;}.cls-8{fill:#94067c;}.cls-9{fill:#b24d91;}.cls-10{fill:#ad3389;}.cls-11{fill:#b63d8d;}.cls-12{fill:#ac2688;}.cls-13{fill:#ba5b97;}.cls-14{fill:#a2027d;}.cls-15{fill:#7e0077;}.cls-16{fill:#a10c80;}.cls-17{fill:#c55a97;}.cls-18{fill:#b42088;}.cls-19{fill:#90017a;}.cls-20{fill:#c12c8b;}.cls-21{fill:#c43b8e;}.cls-22{fill:#cb4892;}.cls-23{fill:#d64b94;}.cls-24{fill:#a0037d;}.cls-25{fill:#9c0d7f;}.cls-26{fill:#c8298b;}.cls-27{fill:#b60e82;}.cls-28{fill:#c6218b;}.cls-29{fill:#b60f82;}.cls-30{fill:#dd629c;}.cls-31{fill:#d63e92;}.cls-32{fill:#ac1985;}.cls-33{fill:#e768a2;}.cls-34{fill:#de4496;}.cls-35{fill:#d63293;}.cls-36{fill:#d62f94;}.cls-37{fill:#c51f8a;}.cls-38{fill:#e8559d;}.cls-39{fill:#bf1f89;}.cls-40{fill:#a61e86;}.cls-41{fill:#da3f95;}.cls-42{fill:#c82b8c;}.cls-43{fill:#f062a1;}.cls-44{fill:#ef5a9e;}.cls-45{fill:#e3419a;}.cls-46{fill:#b62f8a;}.cls-47{fill:#c7358d;}.cls-48{fill:#b5378b;}.cls-49{fill:#f476a7;}.cls-50{fill:#f883aa;}.cls-51{fill:#e24f99;}.cls-52{fill:#d74994;}.cls-53{fill:#f779a7;}.cls-54{fill:#bc4590;}.cls-55{fill:#f267a2;}.cls-56{fill:#ea61a1;}.cls-57{fill:#f986ab;}.cls-58{fill:#fa97b2;}.cls-59{fill:#d05094;}.cls-60{fill:#fa97b1;}.cls-61{fill:#cc6299;}.cls-62{fill:#d65f99;}.cls-63{fill:#e76ca3;}.cls-64{fill:#bc5896;}.cls-65{fill:#b45b96;}.cls-66{fill:#f481aa;}.cls-67{fill:#fba7b8;}.cls-68{fill:#ec76a7;}.cls-69{fill:#b56598;}.cls-70{fill:#d16c9d;}.cls-71{fill:#f68bad;}.cls-72{fill:#fbabb8;}.cls-73{fill:#fb9bb1;}.cls-74{fill:#c26c9c;}.cls-75{fill:#ea7ca8;}.cls-76{fill:#df76a2;}.cls-77{fill:#f187ac;}.cls-78{fill:#fca4b8;}.cls-79{fill:#f08ab0;}.cls-80{fill:#c875a2;}.cls-81{fill:#e280a8;}.cls-82{fill:#db7fa8;}.cls-83{fill:#bf78a6;}.cls-84{fill:#fa9db8;}.cls-85{fill:#f393b5;}.cls-86{fill:#feaec2;}.cls-87{fill:#b97ead;}.cls-88{fill:#c580ad;}.cls-89{fill:#f397bc;}.cls-90{fill:#ee94bb;}.cls-91{fill:#e38bb3;}.cls-92{fill:#fba8c3;}.cls-93{fill:#d788b1;}.cls-94{fill:#f9a4c3;}.cls-95{fill:#ef99bf;}.cls-105,.cls-124,.cls-96{fill:#fff;}.cls-96{opacity:0.49;}.cls-97{fill:#2f5ac8;}.cls-98{fill:#e2e7fd;}.cls-101,.cls-99{fill:#000446;}.cls-100{fill:#003398;}.cls-102{fill:#62a5e4;}.cls-103{fill:#f4b1b1;}.cls-104{fill:#e98385;}.cls-106{fill:#986633;}.cls-107,.cls-117{fill:#ff5269;}.cls-108{fill:#ff697d;}.cls-109{fill:#ff4760;}.cls-110{fill:#092b80;}.cls-111{fill:#5e2626;}.cls-112{fill:#3a1919;}.cls-113{fill:#bfc7f8;}.cls-114,.cls-122{fill:#26a0f8;}.cls-115{fill:#ff8e9d;}.cls-116{fill:#ff7a8b;}.cls-118{fill:#1a47b6;}.cls-119{fill:#133b9d;}.cls-120{fill:#092978;}.cls-121{fill:#2046a7;}.cls-123{fill:#e50013;}.cls-125{fill:#ff4971;}</style></defs><title>wrs-studio</title><rect class="cls-1" width="3319.63" height="1194.49"/><path class="cls-2" d="M2398.57,0,842.25,1194.49H0v-47.91L1493.9,0Zm921.06,880.59-409,313.9H2572.29l747.34-567.11ZM560.05,0,0,429.84V9.73L12.68,0Z"/><polygon class="cls-3" points="2622.73 269.67 2622.73 269.67 2653.67 265.97 2622.73 269.67"/><polygon class="cls-3" points="96.94 443.95 319.63 363.39 483.77 0 483.77 0 319.63 363.39 96.94 443.95"/><path class="cls-3" d="M2442.21,384l-81.77,332.37Z"/><path class="cls-3" d="M2754.55,624.13l320.39-14.67Z"/><polygon class="cls-3" points="2091.48 738.4 2136.38 276.92 2136.38 276.92 2091.48 738.4"/><polygon class="cls-3" points="2875.31 365.58 2937.81 231.58 2937.81 231.58 2875.31 365.58"/><polygon class="cls-3" points="434.31 594.8 758.65 337.09 758.65 337.09 434.31 594.8"/><path class="cls-3" d="M1701.31,467.38,1403.37,657.84Z"/><path class="cls-3" d="M96.94,444l-54.16,252Z"/><polygon class="cls-3" points="434.31 594.8 319.63 363.39 434.31 594.8 373.79 931.73 339.81 1194.49 339.81 1194.49 373.79 931.73 434.31 594.8"/><polygon class="cls-3" points="0 1193.65 0 1194.49 0.61 1194.49 0 1193.65"/><polygon class="cls-4" points="3319.63 707.89 3319.63 369.62 3074.94 609.46 3319.63 707.89"/><polygon class="cls-5" points="3319.63 1048.87 3319.63 788.97 3042.02 1046 3319.63 1048.87"/><polygon class="cls-6" points="3160.35 1194.49 3319.63 1194.49 3319.63 1048.87 3042.02 1046 3160.35 1194.49"/><polygon class="cls-7" points="3005.01 1194.49 3160.35 1194.49 3042.02 1046 3005.01 1194.49"/><polygon class="cls-8" points="3042.02 1046 3319.63 788.97 3319.63 707.89 3074.94 609.46 3042.02 1046"/><polygon class="cls-9" points="3319.63 66.74 3319.63 0 2955.4 0 2929.92 33.88 3319.63 66.74"/><polygon class="cls-10" points="3319.63 353.61 3319.63 93.88 2937.81 231.58 3319.63 353.61"/><polygon class="cls-11" points="2937.81 231.58 2937.81 231.58 2937.81 231.58 2937.81 231.58 3319.63 93.88 3319.63 66.74 2929.92 33.88 2937.81 231.58"/><polygon class="cls-12" points="3074.94 609.46 3319.63 369.62 3319.63 353.61 2937.81 231.58 3074.94 609.46"/><polygon class="cls-13" points="2955.4 0 2935.08 0 2929.92 33.88 2955.4 0"/><polygon class="cls-14" points="2692.66 927.34 3042.02 1046 2754.55 624.13 2692.66 927.34"/><polygon class="cls-15" points="2919.91 1194.49 3005.01 1194.49 3042.02 1046 2919.91 1194.49"/><polygon class="cls-16" points="3042.02 1046 3074.94 609.46 2754.55 624.13 3042.02 1046"/><polygon class="cls-17" points="2935.08 0 2889.41 0 2929.92 33.88 2935.08 0"/><polygon class="cls-18" points="2754.55 624.13 3074.94 609.46 2937.81 231.58 2875.31 365.58 2754.55 624.13"/><polygon class="cls-19" points="2692.66 927.34 2724.52 1194.49 2919.91 1194.49 3042.02 1046 2692.66 927.34"/><polygon class="cls-20" points="2754.55 624.13 2754.55 624.13 2875.31 365.58 2937.81 231.58 2653.67 265.97 2622.73 269.67 2754.55 624.13"/><polygon class="cls-21" points="2937.81 231.58 2937.81 231.58 2937.81 231.58 2937.81 231.58 2929.92 33.88 2622.73 269.67 2653.67 265.97 2937.81 231.58"/><polygon class="cls-22" points="2622.73 269.67 2622.73 269.67 2929.92 33.88 2889.41 0 2660.65 0 2622.73 269.67"/><polygon class="cls-23" points="2622.73 269.67 2660.65 0 2458.74 0 2369.69 67.59 2622.73 269.67"/><polygon class="cls-24" points="2283.98 980.1 2520.48 1194.49 2724.52 1194.49 2692.66 927.34 2283.98 980.1"/><polygon class="cls-25" points="2274.43 1194.49 2520.48 1194.49 2283.98 980.1 2274.43 1194.49"/><polygon class="cls-26" points="2754.55 624.13 2622.73 269.67 2442.21 383.95 2754.55 624.13"/><polygon class="cls-27" points="2360.44 716.32 2692.66 927.34 2754.55 624.13 2360.44 716.32"/><polygon class="cls-28" points="2442.21 383.95 2360.44 716.32 2754.55 624.13 2442.21 383.95"/><polygon class="cls-29" points="2283.98 980.1 2692.66 927.34 2360.44 716.32 2283.98 980.1"/><polygon class="cls-30" points="2458.74 0 2360.74 0 2369.69 67.59 2458.74 0"/><polygon class="cls-31" points="2442.21 383.95 2442.21 383.95 2442.21 383.95 2622.73 269.67 2369.69 67.59 2442.21 383.95"/><polygon class="cls-32" points="2125.76 1163.14 2144.72 1194.49 2274.43 1194.49 2283.98 980.1 2125.76 1163.14"/><polygon class="cls-33" points="2360.74 0 2269.72 0 2369.69 67.59 2360.74 0"/><polygon class="cls-34" points="2369.69 67.59 2136.38 276.92 2442.21 383.95 2369.69 67.59"/><polygon class="cls-35" points="2442.21 383.95 2442.21 383.95 2442.21 383.95 2442.21 383.95 2136.38 276.92 2360.44 716.32 2442.21 383.95"/><polygon class="cls-36" points="2360.44 716.32 2136.38 276.92 2091.48 738.4 2360.44 716.32"/><polygon class="cls-37" points="2091.48 738.4 2283.98 980.1 2360.44 716.32 2091.48 738.4"/><polygon class="cls-38" points="2136.38 276.92 2136.38 276.92 2136.38 276.92 2369.69 67.59 2269.72 0 2100.12 0 2136.38 276.92"/><polygon class="cls-39" points="2125.76 1163.14 2283.98 980.1 2091.48 738.4 2125.76 1163.14"/><polygon class="cls-40" points="2106.65 1194.49 2144.72 1194.49 2125.76 1163.14 2106.65 1194.49"/><polygon class="cls-41" points="2091.48 738.4 1701.31 467.38 1815.99 813.07 2091.48 738.4"/><polygon class="cls-42" points="1815.99 813.07 2125.76 1163.14 2091.48 738.4 1815.99 813.07"/><polygon class="cls-43" points="2136.38 276.92 2136.38 276.92 2100.12 0 1760.17 0 1665.66 36.74 2136.38 276.92"/><polygon class="cls-44" points="1701.31 467.38 1701.31 467.38 1701.31 467.38 2136.38 276.92 1665.66 36.74 1701.31 467.38"/><polygon class="cls-45" points="2091.48 738.4 2136.38 276.92 2136.38 276.92 2136.38 276.92 2136.38 276.92 2136.38 276.92 2136.38 276.92 1701.31 467.38 2091.48 738.4"/><polygon class="cls-46" points="1640.63 966.78 1794.45 1194.49 2106.65 1194.49 2125.76 1163.14 1640.63 966.78"/><polygon class="cls-47" points="1640.63 966.78 2125.76 1163.14 1815.99 813.07 1640.63 966.78"/><polygon class="cls-48" points="1657.62 1194.49 1794.45 1194.49 1640.63 966.78 1657.62 1194.49"/><polygon class="cls-49" points="1760.17 0 1691.75 0 1665.66 36.74 1760.17 0"/><polygon class="cls-50" points="1691.75 0 1657.46 0 1665.66 36.74 1691.75 0"/><polygon class="cls-51" points="1701.31 467.38 1403.37 657.84 1815.99 813.07 1701.31 467.38"/><polygon class="cls-52" points="1403.37 657.84 1640.63 966.78 1815.99 813.07 1403.37 657.84"/><polygon class="cls-53" points="1665.66 36.74 1263.65 76.35 1284.74 455.75 1665.66 36.74"/><polygon class="cls-54" points="1400.64 1194.49 1657.62 1194.49 1640.63 966.78 1400.64 1194.49"/><polygon class="cls-55" points="1701.31 467.38 1665.66 36.74 1284.74 455.75 1701.31 467.38"/><polygon class="cls-56" points="1701.31 467.38 1701.31 467.38 1701.31 467.38 1284.74 455.75 1403.37 657.84 1701.31 467.38"/><polygon class="cls-57" points="1665.66 36.74 1657.46 0 1321.91 0 1263.65 76.35 1665.66 36.74"/><polygon class="cls-58" points="1321.91 0 1267.14 0 1263.65 76.35 1321.91 0"/><polygon class="cls-59" points="1403.37 657.84 1398.06 1194.49 1400.64 1194.49 1640.63 966.78 1403.37 657.84"/><polygon class="cls-60" points="1263.65 76.35 1267.14 0 1151.55 0 1131.68 55.79 1263.65 76.35"/><polygon class="cls-61" points="1043.39 1144.09 1381.83 1194.49 1396.24 1194.49 1046.12 710.59 1043.39 1144.09"/><polygon class="cls-62" points="1046.12 710.59 1396.24 1194.49 1398.06 1194.49 1403.37 657.84 1046.12 710.59"/><polygon class="cls-63" points="1046.12 710.59 1403.37 657.84 1284.74 455.75 1046.12 710.59"/><polygon class="cls-64" points="1135.77 1194.49 1381.83 1194.49 1043.39 1144.09 1135.77 1194.49"/><polygon class="cls-65" points="1042.17 1194.49 1135.77 1194.49 1043.39 1144.09 1042.17 1194.49"/><polygon class="cls-50" points="1263.65 76.35 1131.68 55.79 1284.74 455.75 1263.65 76.35"/><polygon class="cls-66" points="1284.74 455.75 1131.68 55.79 951.15 448.33 1284.74 455.75"/><polygon class="cls-67" points="1151.55 0 1116.05 0 1131.68 55.79 1151.55 0"/><polygon class="cls-68" points="951.15 448.33 1046.12 710.59 1284.74 455.75 951.15 448.33"/><polygon class="cls-69" points="963.75 1194.49 1042.17 1194.49 1043.39 1144.09 963.75 1194.49"/><polygon class="cls-70" points="1043.39 1144.09 1046.12 710.59 790.35 1010.77 1043.39 1144.09"/><polygon class="cls-71" points="1131.68 55.79 758.65 337.09 951.15 448.33 1131.68 55.79"/><polygon class="cls-72" points="1116.05 0 959.35 0 1131.68 55.79 1116.05 0"/><polygon class="cls-73" points="758.65 337.09 758.65 337.09 758.65 337.09 1131.68 55.79 959.35 0 654.28 0 758.65 337.09"/><polygon class="cls-74" points="790.35 1010.77 759.25 1194.49 963.75 1194.49 1043.39 1144.09 790.35 1010.77"/><polygon class="cls-75" points="782.46 566.99 1046.12 710.59 951.15 448.33 782.46 566.99"/><polygon class="cls-76" points="790.35 1010.77 1046.12 710.59 782.46 566.99 790.35 1010.77"/><polygon class="cls-77" points="951.15 448.33 758.65 337.09 782.46 566.99 951.15 448.33"/><polygon class="cls-78" points="758.65 337.09 654.28 0 506.52 0 758.65 337.09"/><polygon class="cls-79" points="782.46 566.99 758.65 337.09 434.31 594.8 782.46 566.99"/><polygon class="cls-80" points="373.79 931.73 606.8 1194.49 759.25 1194.49 790.35 1010.77 373.79 931.73"/><polygon class="cls-81" points="434.31 594.8 790.35 1010.77 782.46 566.99 434.31 594.8"/><polygon class="cls-82" points="373.79 931.73 790.35 1010.77 434.31 594.8 373.79 931.73"/><polygon class="cls-83" points="339.81 1194.49 606.8 1194.49 373.79 931.73 339.81 1194.49"/><polygon class="cls-84" points="758.65 337.09 506.52 0 483.77 0 319.63 363.39 758.65 337.09"/><polygon class="cls-85" points="758.65 337.09 758.65 337.09 758.65 337.09 758.65 337.09 758.65 337.09 758.65 337.09 319.63 363.39 434.31 594.8 758.65 337.09"/><polygon class="cls-86" points="483.77 0 9.71 0 319.63 363.39 483.77 0"/><polygon class="cls-87" points="35.5 1194.49 0 1169.38 0 1193.65 0.61 1194.49 35.5 1194.49"/><polygon class="cls-88" points="339.81 1194.49 373.79 931.73 0 1127.91 0 1169.38 35.5 1194.49 339.81 1194.49"/><polygon class="cls-89" points="319.63 363.39 96.94 443.95 434.31 594.8 319.63 363.39"/><polygon class="cls-90" points="96.94 443.95 42.78 695.93 434.31 594.8 96.94 443.95"/><polygon class="cls-91" points="42.78 695.93 373.79 931.73 434.31 594.8 42.78 695.93"/><polygon class="cls-92" points="96.94 443.95 96.94 443.95 319.63 363.39 9.71 0 0 0 0 121.02 96.94 443.95"/><polygon class="cls-93" points="42.78 695.93 0 947.74 0 1127.91 373.79 931.73 42.78 695.93"/><polygon class="cls-94" points="96.94 443.95 96.94 443.95 0 121.02 0 375.52 42.78 695.93 96.94 443.95"/><polygon class="cls-95" points="0 375.52 0 947.74 42.78 695.93 0 375.52"/><rect class="cls-96" x="570" y="80.86" width="2179.62" height="1033.75"/><path class="cls-97" d="M1527.72,623.06h84.16c11.76,0,21.39,5.08,21.39,11.3v11.29h-127V634.36c0-6.22,9.63-11.3,21.4-11.3"/><polygon class="cls-97" points="1440.38 503.69 1453.06 500.63 1563.43 626.89 1550.75 629.95 1440.38 503.69"/><polygon class="cls-97" points="1383.68 504.94 1382.44 497.61 1440.61 494.88 1441.84 502.21 1383.68 504.94"/><path class="cls-98" d="M1659.82,907.84c580.26,0,1050.66,12.62,1050.66,28.18s-470.4,28.19-1050.66,28.19S609.15,951.59,609.15,936s470.4-28.18,1050.67-28.18"/><path class="cls-99" d="M2378,599.51v37.2c0,25.6-19.84,48.88-51.81,65.75-31.15,16.44-73.84,26.81-120.91,27.32v0H1978.94c-5.11,0-9.25-2.35-9.25-5.26s4.14-5.27,9.25-5.27h222.69c43,0,82.11-9.29,110.47-24.25s46-35.61,46-58.31V553c0-2.89,4.49-5.26,10-5.26s10,2.37,10,5.26Z"/><path class="cls-100" d="M2358.06,553H2341.6c-9,0-16.45,3.91-16.45,8.69v87.13c0,4.78,7.4,8.69,16.45,8.69h16.46Z"/><path class="cls-99" d="M2288.17,881V778.63c0-12.54-11.14-24-29.09-32.21s-42.71-13.4-69.94-13.4H2078.82c-27.23,0-52,5.13-69.94,13.4s-29.1,19.67-29.1,32.21V881ZM2078.82,726.59h110.32c31.08,0,59.33,5.85,79.8,15.28s33.19,22.45,33.19,36.76V943.27h-14V888.61H1979.78v54.66h-14V778.63c0-14.31,12.71-27.33,33.18-36.76S2047.74,726.59,2078.82,726.59Z"/><path class="cls-101" d="M2048.88,532.19c-21,24.37-70.8,79.46-131,84.2-48.84,3.83-96.9-39.59-103.93-47.5s24.43-23.81,24.43-23.81,44.56,23.81,57.72,21.72c14.82-2.36,46.82-36.33,76.21-50.35,6.25-3,85.64,5.26,76.59,15.74"/><path class="cls-101" d="M2034,505.57h122.83c29.7,0,72.4,4.8,90.38,14.61,27.48,15,8.18,168.39-9,191.27-.58.45-14.45,5.85-35.17,6.8-67.92,3.13-222.41,2.14-240.13,3.32l2.88-135.14,6.09-69.7c17-6.68,38.22-11.16,62.1-11.16"/><path class="cls-102" d="M2036.4,506.34,2160,506l-8.16,212.14-123.3,0c.18-15.16.92-211.84,7.86-211.86"/><path class="cls-103" d="M2017.93,476.38c-4.19,14,27.75,24.72,49.42,23.79v6.41l-9.92,7.07L2055.74,528l29.27,8.3,42.45-16.9,3.26-12.78h-3.26V482a34,34,0,0,0,4.77-1.06c4.78-1.46,6.64-5.05,5.36-8.75s-11.47-1.2-11.47-1.2h0c8.84-11,20.16-20.43-2.62-26.53s-68.73-5.64-68.73-5.64l-27.55-1.43c7.45,6-6.51,29.7-9.29,39"/><path class="cls-104" d="M2062.28,500.3c1.73,0,3.42-.06,5.07-.13h0c13.67-.13,28-5,40.72-7.48,0,0-6.44,12-22.69,15.8a106.68,106.68,0,0,1-18,2.65v-11l-4.91.05Z"/><path class="cls-101" d="M2109.15,450.92c6.66,6.62,6.1,16.18,2.94,19.67-8.8,9.7,11.24,5.48,11.87,4.71a11.65,11.65,0,0,1,6-3.71c1.54-.39,4.5-.58,5.76-.07,4.29,1.71,2,7.1-2.95,8.9-1.44.53-3.67,1.57-3.67,1.57s24.07.35,38.09-7.09c17.16-9.11,22.13-22.21,5.66-33.23,6.6-44-70.71-40-125.67-33.42-29.58,3.55-32.74,21.05-20.7,30.71,24.48,19.63,70.13-.54,82.71,12"/><path class="cls-101" d="M2181.23,546.41c-10.85-11.79,1.33-24.12,24.33-29.3h0c23-5.19,47.76,2.15,58.61,13.93,21.3,23.13,83.47,75.7,52.93,101.71-24.78,21.09-90.29,5.68-105.77,3.49s-18.4-24.07-18.4-24.07,38,2,43.19-4.33c8.58-10.5-47.28-53.17-54.89-61.43"/><path class="cls-102" d="M2185.24,610.06c13.05,4.12,23,16,22.14,23.76-3.53-.35-33.85-5.66-33.85-5.66-10.58-6.34-14.11-14.5-11.34-19.73Z"/><path class="cls-103" d="M2163.43,609.57l-16-1.39L2133.39,602a8.44,8.44,0,0,0-6.09.34c-3.51,1.43-15.93,9.89-15.93,9.89l26.15,14.23,6.44.08s5.22-3.1,6.29-3.86,24.42,3.56,24.42,3.56c.35-2.56-1.54-11-11.24-16.68"/><path class="cls-105" d="M2085.81,557.37c2.65,0,4.79,1.08,4.79,2.41s-2.14,2.42-4.79,2.42-4.79-1.08-4.79-2.42,2.15-2.41,4.79-2.41m0-14c2.65,0,4.79,1.08,4.79,2.42s-2.14,2.41-4.79,2.41-4.79-1.08-4.79-2.41S2083.17,543.35,2085.81,543.35Zm.31,27.55c-2.63,0-4.76,1.13-4.76,2.51s2.13,2.51,4.76,2.51,4.75-1.13,4.75-2.51S2088.74,570.9,2086.12,570.9Zm-18.79-64.8c-16.6,14.31,1.5,24.46,17.83,29.06,23-7.54,43.71-14.89,43.71-29.06,0,0,7.94-.07,13.09,6.28,8.51,10.3-5.75,33.42-5.75,33.42s-16-10.44-29.28-11-21.92,1.46-21.92,1.46c-17-6.29-28.59,1.87-40,7.84-3.58-15.25-3.13-26.2,19.49-38Z"/><path class="cls-102" d="M1836.63,549.25c2.26,7.48-8.19,18.51-19.58,23l-17.46-16.45c2.35-7.9,11.58-14.24,20.56-16.38Z"/><path class="cls-103" d="M1810.69,532.4c-1.09-3.47-5.74-17.19-10.32-19.6-2.34-1.23-3-.72-4.13,0a4.31,4.31,0,0,0-1.82,3.56c.33,2.53.48,4.84,1.08,6.21-14.13-4.38-27.15-14.13-37.16-20.84-4.06-2.72-10.94-2.62-7.23,2.15,3,3.9,21.24,16.86,21.24,16.86l-28.11-9c-4.94-1.58-5.22,1.72-2.92,3.17,3.76,2.38,27.8,11.2,27.8,11.2l-27-2.81s-2.92,1.47.37,2.63,28.92,6.25,28.92,6.25l-17.62-.28s-1.82,1.83,2.55,2.69c2.34.45,8.44,1,14.22,2.16a91.83,91.83,0,0,1,11.67,3.33c3.89,1.37,11.64,5.82,11.64,5.82h0c3.27,3.58,7.42,9.13,7.42,9.13,4.16-1.52,15.86-7.76,18-15.31Z"/><path class="cls-106" d="M1608.79,944.33l142.29-.74c4-3.36,33.86-37.79,38.39-44.36,0,0-37.87-4-46.17-5-4.93-.59-9.11-2.46-10.65-5l-.3-.57c-3.41-7.58-24.19-9.88-27.88-2.45-.48,1-.89,1.9-1.24,2.8-.09.22-.18.45-.25.66a36.14,36.14,0,0,0-1.29,4.36l0,.08a22.25,22.25,0,0,0-.61,5.37c-1.86,1.27-3.65,2.52-5.39,3.75l-2.6,1.82c-1.85,1.3-3.64,2.56-5.41,3.76-.81.58-1.62,1.13-2.44,1.67-2,1.31-3.87,2.56-5.8,3.72-.87.53-1.73,1-2.62,1.54-7.27,4.11-14.61,6.93-23.35,7.62-15.41,1.19-40.59,2.22-52.54,14.24a3.39,3.39,0,0,0-.6.76c-1.74,2.9,2.42,6,8.48,6"/><path class="cls-107" d="M1250.31,909l-123.21-28.5c-1.14-3.71,32.29-30.91,33-37.51,0,0,35.76,3.91,43.68,4.67,4.7.46,9.64-.34,12.77-2.26l.66-.43c8.29-5.92,28-3.86,26,3.33-.26.93-.56,1.82-.88,2.67l-.25.63a40.38,40.38,0,0,1-1.94,4l0,.08a31.84,31.84,0,0,1-3.24,4.78c3.37,6.86-4.58,17.14,2.53,19.44,18.49,11.73,28.38,15.47,22.59,24.73a2.1,2.1,0,0,1,0,.79c-.53,2.85-6.34,4.75-11.58,3.54"/><path class="cls-108" d="M1240,521.6c53.44,27.08,114.1,68.94,182,80.24,0,0,6.31,8.39,3,15.91a21,21,0,0,1-9.58,10.36s-57.14,2.75-105.14-2.56c-27-3-50.54-13.93-60.77-16.11-28.44-6-53.06-28.24-53.06-28.24Z"/><path class="cls-109" d="M1426,612.91a11.62,11.62,0,0,1-.94,4.84,21,21,0,0,1-9.58,10.36s-57.14,2.75-105.14-2.56c-27-3-50.54-13.93-60.77-16.11-12.37-2.62-24-8.31-33.22-13.89l-1.34-3.17,19.65-32.77s38.14,29.41,116.67,42.24c38.08,6.22,61.08,9.42,74.67,11.06"/><path class="cls-108" d="M1177,508.45H1044.9c-51.8,0-80.81,20.69-89.38,47-.9,0-4.8,17.35-5.07,18.86-8.38,46.65,1.94,118.7,50.42,147.56l50.23-.32L1240,697.19V521.6c-18.32-8.2-37.25-13.15-62.93-13.15"/><path class="cls-110" d="M1243.3,719.27c-49.34,54.27-119,137.68-119,137.68h131.88l106.58-124.48c4-4.64,23.8-23.91,25.63-32.69,4.25-20.39-17.73-31.14-47-31.49H1171.73v51Z"/><path class="cls-108" d="M1089.63,508.45s-1.53,12.85,5.71,15.93,25.71,4.87,33.19,3.64,17.65-6.41,20.45-9,.77-10.57.77-10.57h12.44l10,57.63-3,102.21L1118,684.5l-39.35-12.64-5.46-163.41Z"/><path class="cls-107" d="M1594.18,944.33l-142.29-.74c-4-3.36-33.86-37.79-38.39-44.36,0,0,37.86-4,46.17-5,4.93-.59,9.11-2.46,10.64-5q.17-.29.3-.57c3.42-7.58,24.19-9.88,27.88-2.45.49,1,.9,1.9,1.25,2.8.09.22.17.45.25.66a36.14,36.14,0,0,1,1.29,4.36l0,.08a22.25,22.25,0,0,1,.61,5.37c1.86,1.27,3.65,2.52,5.39,3.75l2.6,1.82c1.84,1.3,3.64,2.56,5.41,3.76.81.58,1.62,1.13,2.44,1.67,2,1.31,3.87,2.56,5.8,3.72.87.53,1.73,1,2.62,1.54,7.27,4.11,14.61,6.93,23.35,7.62,15.4,1.19,40.59,2.22,52.54,14.24a3.39,3.39,0,0,1,.6.76c1.74,2.9-2.42,6-8.48,6"/><path class="cls-101" d="M1131.86,645.21h970.81c5.4,0,9.82,2.33,9.82,5.18h0c0,2.85-4.42,5.18-9.82,5.18H1131.86c-5.4,0-9.81-2.33-9.81-5.18h0c0-2.85,4.41-5.18,9.81-5.18"/><path class="cls-111" d="M1187.15,449.48c-.48,5.87,1.07,10.95,5.26,14.53,13.89,11.86-11.21,34.5-42.77,33.08l.11,11.36h12.44l2.28,21.8c-23,4.55-63.29,4.55-90.52.5l-12.38-22.3h28.06V486.19a34.9,34.9,0,0,1-4.79-1.12c-4.79-1.54-6.66-5.3-5.37-9.19s11.5-1.26,11.5-1.26h0c-8.87-11.51-20.22-21.45,2.63-27.85s69-5.92,69-5.92l25.7,4.07Z"/><path class="cls-112" d="M1149.64,497.11l.11,14.59c-22.48-1.75-37.13-6.56-42.76-18.8a194.76,194.76,0,0,0,38.25,4.15Z"/><path class="cls-101" d="M1117.24,447.76s60.4,6.24,82.27-2.16c48.39-18.61,19.32-65.75-92.58-53.53-83.42,9.11-70.32,64.32-120.83,68.33-140.12,11.12-125,61.48-90.74,71.88.24.07,5.76-18.22,29.2-18.74-32.8,14.61-3.44,38.5,29.09,47.25.58-2,1.07-3.39,1.32-3.39,8.57-26.28,38.13-48.95,89.93-48.95h44.73V486.19s-10-2.72-9.43-7.84,4.26-3.45,5.37-3.33l6.19.71c2.25-6.65,8.29-27.24,25.48-28"/><path class="cls-97" d="M1307.14,553.51H1524c8.37,0,17,3.72,15.21,8l-32.41,75.65c-1.84,4.31-6.84,8-15.2,8H1274.73c-8.36,0-17-3.72-15.2-8l32.4-75.65c1.85-4.3,6.85-8,15.21-8"/><path class="cls-113" d="M1316.86,553.51h216.87c8.36,0,17,3.72,15.2,8l-32.41,75.65c-1.84,4.31-6.84,8-15.2,8H1284.45c-8.36,0-17-3.72-15.2-8l32.4-75.65c1.85-4.3,6.85-8,15.21-8"/><path class="cls-97" d="M1413.67,591.84c6.55,1.11,9.81,5.38,7.29,9.53s-9.9,6.62-16.45,5.5-9.81-5.38-7.29-9.53,9.89-6.61,16.45-5.5"/><rect class="cls-114" x="1177.01" y="637.71" width="89.74" height="7.5"/><path class="cls-103" d="M1222.92,624.45s41.91,1.8,55,5.18,17.33,7.39,17.33,7.39c1.16.21,9.64-.23,14.06,1.68,5,2.17,5.58,6.69-1.47,6.35-2.61-.12-76.75,0-76.75,0l-15.48-1.83s7.26-12.23,6-14.74-8.64-5.63-8.64-5.63Z"/><polygon class="cls-105" points="1135.7 598.58 1066.43 508.45 1041.14 508.48 1035.01 528.73 1069.54 536.32 1040.77 549.99 1135.7 598.58"/><path class="cls-115" d="M1040.77,540.88c-8.65-13.16-39.15-17.33-55-9h0c-18.84,6.46-25.31,24.64-17.25,38,14.21,23.52,79.76,65,128.35,70.05,28.08,2.9,73.87,6,104,5.26,12.18-.29,22,0,26.77-2.42,16.6-8.53-8.48-26-8.48-26s-90.08-17.52-100.7-19.74c-17.58-3.68-71.61-47-77.67-56.18"/><path class="cls-116" d="M972.84,539.78c-8.43,8.44-18.38,19.32-9.75,36,14.21,23.52,80.87,61.8,129.46,66.81,28.07,2.9,78.15,3.31,108.3,2.6,12.18-.29,22,0,26.77-2.42,0,0-89.64-7.86-132.2-16.28-38.41-7.59-123.87-56-122.58-86.73"/><polygon class="cls-105" points="1162.19 508.45 1135.7 598.58 1196.12 545.43 1175.98 534.8 1204.75 528.73 1181.83 508.51 1162.19 508.45"/><path class="cls-105" d="M1155.36,531.71s-14.66,2.38-41.61,2-29.17-1.63-29.17-1.63l3.77,4.91c16.89.94,50.71,1.93,65.78-1.1Z"/><path class="cls-117" d="M1135.7,598.58,1088.35,537c16.89.94,50.71,1.93,65.78-1.1Z"/><path class="cls-99" d="M835.43,599.51v37.2c0,25.6,19.84,48.88,51.8,65.75,31.16,16.44,73.85,26.81,120.91,27.32v0h226.35c5.11,0,9.26-2.35,9.26-5.26s-4.15-5.27-9.26-5.27H1011.81c-43,0-82.12-9.29-110.48-24.25s-46-35.61-46-58.31V553c0-2.89-4.49-5.26-10-5.26s-10,2.37-10,5.26Z"/><path class="cls-100" d="M855.37,553h16.46c9,0,16.46,3.91,16.46,8.69v87.13c0,4.78-7.41,8.69-16.46,8.69H855.37Z"/><path class="cls-99" d="M925.26,881V778.63c0-12.54,11.15-24,29.09-32.21s42.72-13.4,69.94-13.4h110.32c27.23,0,52,5.13,69.94,13.4s29.1,19.67,29.1,32.21V881Zm209.35-154.42H1024.29c-31.08,0-59.32,5.85-79.8,15.28s-33.19,22.45-33.19,36.76V943.27h14V888.61h308.39v54.66h14V778.63c0-14.31-12.71-27.33-33.19-36.76S1165.69,726.59,1134.61,726.59Z"/><path class="cls-118" d="M1082.3,668.19c54.11,0,116.38.26,170.46-.07,17.24-.1,32.72.08,50.76,4.45,11.56,2.8,22.49,7.95,30.63,14.47,25.37,20.34,190.76,216.75,190.76,216.75h-132.5l-142.1-165.67c-8-9.36-17.63-12.68-37.5-15.35-23-3.1-204.35-.95-204.35-.95Z"/><path class="cls-119" d="M1433.44,903.79h-41l-142.1-165.67c-8-9.36-17.63-12.68-37.5-15.35-23-3.1-204.35-.95-204.35-.95l18.41-13.38h234.64Z"/><path class="cls-99" d="M1822.49,645.65H1412.05c-42.69,0-81.49,8-109.62,21s-45.58,30.82-45.58,50.48V943.27H1276V717.13c0-17.22,15.31-32.88,40-44.24s58.67-18.41,96.07-18.41h410.44c37.39,0,71.4,7,96.06,18.41s40,27,40,44.24V943.27h19.17V717.13c0-19.66-17.46-37.53-45.59-50.48s-66.93-21-109.61-21"/><path class="cls-101" d="M2110.71,668c-53.23,0-114.49.25-167.7-.07-17-.1-32.19.08-49.94,4.38-11.38,2.76-22.12,7.82-30.13,14.23-25,20-193.5,217.25-193.5,217.25h130.35L1943.2,739.38c8-9.19,23.85-16.66,43.39-19.29,22.65-3.05,86-1.59,86-1.59Z"/><path class="cls-101" d="M2101.69,667.75c-68.14,1-79.6,23.16-84.59,54.78l-34.21,181.4H2098l38.13-185.43,4.16,2h29.12c57.49,0,68-14,67.89-28.17-.05-5.93-6.34-14.74-17.58-18.27-23.51-7.38-89.29-6.68-118-6.27"/><path class="cls-106" d="M1978.85,939.33c1.29,10.82,81.64,7.09,94.49,3.84,5-1.25,7-3.67,7.43-6.59.63-4.67-3-10.64-6.18-15.32-5.15-7.62-4.44-7.48-8-12.69,0,0,.93-8.47-25.4-11.71-22-2.7-30.79,3.22-36.23,10.37-1.09,1.43-3.5,10.87-4.25,11.55-4.12,3.71-20.12,8.8-21.77,17.94a8.73,8.73,0,0,0-.08,2.61"/><path class="cls-120" d="M1303.85,505.48h0c-1-6.22,7.74-11.76,19.53-12.32l42.87-2c11.79-.55,22.29,4.08,23.34,10.31h0c1.05,6.22-7.74,11.76-19.53,12.32l-42.87,2c-11.79.56-22.29-4.08-23.34-10.31"/><path class="cls-97" d="M1345.81,503.89a26.91,26.91,0,0,1-.34-6.47l-5.61-7.83,9.57-.45c3.81-.18,8,6,9.3,13.9s-.69,14.36-4.51,14.54l-9.56.45,3-7.73a29.29,29.29,0,0,1-1.83-6.41"/><path class="cls-121" d="M1336.23,492.56c.85-1.8,2.1-2.9,3.63-3,3.82-.18,8,6,9.31,13.89s-.7,14.37-4.51,14.55c-1.61.07-3.28-1-4.78-2.83l2.86-.14c2.18-.1,3.09-5.25,2-11.5s-3.67-11.23-5.86-11.12Z"/><path class="cls-122" d="M1430.38,499.05c-.74-4.36,5.36-8.21,13.63-8.6s15.56,2.84,16.29,7.2-5.37,8.21-13.63,8.6-15.56-2.83-16.29-7.2"/><polygon class="cls-97" points="1825.5 429.37 1816.82 423.61 1610.21 509.88 1618.9 515.64 1825.5 429.37"/><polygon class="cls-97" points="1875.01 444.02 1882.4 437.77 1832.85 421.45 1825.47 427.7 1875.01 444.02"/><path class="cls-120" d="M1945.18,464h0c6.51-5.22,3.75-12.3-6.14-15.73l-36-12.5c-9.88-3.43-23.29-2-29.8,3.24h0c-6.51,5.22-3.75,12.3,6.13,15.73l35.95,12.5c9.89,3.43,23.3,2,29.81-3.24"/><path class="cls-97" d="M1909.66,452.13a56.83,56.83,0,0,0,6.1-5.62l12-5.5-8-2.78c-3.2-1.11-12.45,3.32-20.66,9.91S1886.76,461,1890,462.07l8,2.79,4.31-7.55a73.51,73.51,0,0,0,7.37-5.18"/><path class="cls-121" d="M1928.27,444.54c.86-1.8.75-3.08-.54-3.53-3.2-1.11-12.45,3.33-20.66,9.91s-12.29,12.83-9.09,13.94c1.35.47,3.78-.05,6.75-1.3l-2.4-.83c-1.82-.64,2-5.4,8.53-10.64s13.32-9,15.15-8.34Z"/><path class="cls-122" d="M1838.4,427.62c4.39-3.72,2.25-8.61-4.79-10.92s-16.3-1.19-20.69,2.53-2.25,8.6,4.79,10.92,16.3,1.19,20.69-2.53"/><polygon class="cls-97" points="1628.36 507.87 1614.59 506.72 1572.63 643.99 1586.4 645.15 1628.36 507.87"/><path class="cls-122" d="M1633.53,513.91c4.39-3.71,2.25-8.6-4.79-10.92s-16.3-1.19-20.69,2.53-2.25,8.6,4.79,10.92,16.3,1.19,20.69-2.53"/><path class="cls-113" d="M1286.25,206.48h551.38c34.94,0,63.53,15.09,63.53,33.53h0c0,18.44-28.59,33.53-63.53,33.53H1286.25c-34.94,0-63.53-15.09-63.53-33.53h0c0-18.44,28.59-33.53,63.53-33.53"/><path class="cls-118" d="M1287.47,220.15c21.12,0,38.24,9,38.24,20.18s-17.12,20.19-38.24,20.19-38.24-9-38.24-20.19,17.12-20.18,38.24-20.18"/><polygon class="cls-105" points="1273.58 231.2 1311.24 241.14 1273.58 251.07 1273.58 231.2"/><path class="cls-105" d="M1353.46,236.59h500.8c3.57,0,6.48,1.54,6.48,3.42s-2.91,3.42-6.48,3.42h-500.8c-3.57,0-6.48-1.54-6.48-3.42s2.91-3.42,6.48-3.42"/><path class="cls-123" d="M1426.85,226.16c14.14,0,25.6,6.05,25.6,13.51s-11.46,13.51-25.6,13.51-25.59-6.05-25.59-13.51,11.46-13.51,25.59-13.51"/><path class="cls-113" d="M1131.56,287.44h471.37c29.86,0,54.3,12.9,54.3,28.67s-24.44,28.66-54.3,28.66H1131.56c-29.87,0-54.31-12.9-54.31-28.66s24.44-28.67,54.31-28.67"/><path class="cls-113" d="M1277,358.67h471.36c29.87,0,54.31,12.9,54.31,28.66S1778.26,416,1748.39,416H1277c-29.87,0-54.31-12.9-54.31-28.67s24.44-28.66,54.31-28.66"/><path class="cls-118" d="M1132.61,299.13c18.05,0,32.69,7.72,32.69,17.25s-14.64,17.26-32.69,17.26-32.69-7.73-32.69-17.26,14.63-17.25,32.69-17.25"/><path class="cls-118" d="M1278.08,370.36c18.05,0,32.68,7.72,32.68,17.25s-14.63,17.25-32.68,17.25-32.69-7.72-32.69-17.25,14.63-17.25,32.69-17.25"/><path class="cls-105" d="M1189,313.18h428.13c3,0,5.54,1.32,5.54,2.93s-2.49,2.92-5.54,2.92H1189c-3,0-5.53-1.32-5.53-2.92s2.49-2.93,5.53-2.93"/><path class="cls-105" d="M1334.48,384.41h428.13c3.05,0,5.54,1.32,5.54,2.92s-2.49,2.93-5.54,2.93H1334.48c-3,0-5.53-1.32-5.53-2.93s2.49-2.92,5.53-2.92"/><path class="cls-123" d="M1462.57,304.27c12.09,0,21.88,5.17,21.88,11.55s-9.79,11.55-21.88,11.55-21.88-5.18-21.88-11.55,9.8-11.55,21.88-11.55"/><path class="cls-123" d="M1419.11,375.5c12.08,0,21.88,5.17,21.88,11.55s-9.8,11.55-21.88,11.55-21.88-5.18-21.88-11.55,9.79-11.55,21.88-11.55"/><rect class="cls-124" x="1120.94" y="309.29" width="6.85" height="14.19"/><rect class="cls-124" x="1137.42" y="309.29" width="6.85" height="14.19"/><rect class="cls-124" x="1266.41" y="380.51" width="6.85" height="14.19"/><rect class="cls-124" x="1282.89" y="380.51" width="6.85" height="14.19"/><path class="cls-113" d="M2027.08,263.08c157.19,0,158,119.91,4.09,119.91-64.26,0-116.35-26.84-116.35-60s48-59.95,112.26-59.95"/><polygon class="cls-105" points="1997.96 299 2086.75 322.43 1997.96 345.86 1997.96 299"/><path class="cls-123" d="M1064.94,447.32c-14.39,4.95-18.31,17.12-8.78,27.2s28.91,14.22,43.3,9.27,18.31-17.13,8.77-27.2-28.91-14.22-43.29-9.27"/><path class="cls-125" d="M1059.76,448.82c-14.38,4.95-18.31,17.13-8.78,27.2s28.92,14.22,43.3,9.27,18.31-17.12,8.78-27.19c-6.28-6.63-16.81-10.7-27.39-11.29h0l3.34-1.57c-14.4-26.5,13.52-47.21,47.63-53.87l5-1.12,0-1.75c-49.27-.49-90,33.57-66.64,58.82l1.15-.06a37.42,37.42,0,0,0-6.32,1.56"/><path class="cls-123" d="M2149.15,449.37c14.38,4.95,18.31,17.13,8.78,27.2s-28.92,14.22-43.3,9.27-18.31-17.13-8.78-27.2,28.91-14.22,43.3-9.27"/><path class="cls-125" d="M2154.32,450.87c14.38,4.95,18.31,17.13,8.78,27.2s-28.91,14.22-43.3,9.27-18.31-17.12-8.77-27.19c6.27-6.63,16.81-10.7,27.38-11.29h0l-3.34-1.57c12.4-22.82-18.54-41.17-50.84-42.89,12.34-9.88,88.91,6.47,64.92,45l-1.15-.05a37.41,37.41,0,0,1,6.32,1.55"/><path class="cls-113" d="M2232.56,363.37a80.82,80.82,0,0,1,15.72-1l-5.08-42.5,72.93-11.42,4.91,48c2,3.52-7.24,8.07-20.59,10.15s-25.77.93-27.75-2.59,7.24-8.07,20.59-10.16a80.67,80.67,0,0,1,15.71-1l-3.35-34.1-49.22,7.7,3.89,39.47c2,3.52-7.24,8.07-20.59,10.16s-25.77.92-27.75-2.6,7.23-8.07,20.58-10.16"/><path class="cls-113" d="M2267.06,435.31a66.69,66.69,0,0,1,13.76,2.58l28.72-36.25,42.53,3.87-5.8,7.26-10.86-1-20-1.82L2288,443.44c-1.09,3.35-12.24,5.12-24.9,4s-22-4.8-21-8.14,12.24-5.11,24.9-4"/></svg>